G75*
%MOIN*%
%OFA0B0*%
%FSLAX25Y25*%
%IPPOS*%
%LPD*%
%AMOC8*
5,1,8,0,0,1.08239X$1,22.5*
%
%ADD10C,0.00000*%
%ADD11C,0.13000*%
%ADD12R,0.11811X0.04724*%
%ADD13R,0.04724X0.11811*%
%ADD14C,0.10000*%
%ADD15R,0.02500X0.05000*%
%ADD16C,0.01300*%
%ADD17C,0.04000*%
%ADD18C,0.01600*%
D10*
X0001800Y0001800D02*
X0001800Y0127784D01*
X0088414Y0127784D01*
X0088414Y0001800D01*
X0001800Y0001800D01*
D11*
X0011721Y0113178D03*
X0078020Y0113178D03*
D12*
X0077548Y0074635D03*
X0077548Y0066761D03*
X0077548Y0058887D03*
X0077548Y0051013D03*
X0077548Y0043139D03*
X0077548Y0035265D03*
X0077548Y0027391D03*
X0077548Y0019517D03*
X0012981Y0019517D03*
X0012981Y0027391D03*
X0012981Y0035265D03*
X0012981Y0043139D03*
X0012981Y0051013D03*
X0012981Y0058887D03*
X0012981Y0066761D03*
X0012981Y0074635D03*
D13*
X0026761Y0011249D03*
X0034635Y0011249D03*
X0042509Y0011249D03*
X0050383Y0011249D03*
X0058257Y0011249D03*
X0066131Y0011249D03*
D14*
X0080540Y0088414D03*
X0056918Y0112036D03*
X0009674Y0088414D03*
D15*
X0027587Y0115973D03*
X0031131Y0115973D03*
X0039398Y0115973D03*
X0042942Y0115973D03*
D16*
X0042650Y0115800D01*
X0042650Y0102500D01*
X0029350Y0089200D01*
X0029350Y0087300D01*
X0053100Y0063550D01*
X0049300Y0054050D02*
X0033150Y0070200D01*
X0027450Y0070200D01*
X0019850Y0070200D01*
X0016050Y0074000D01*
X0013200Y0074000D01*
X0012981Y0074635D01*
X0023650Y0077800D02*
X0023650Y0089200D01*
X0011300Y0101550D01*
X0016050Y0101550D02*
X0016050Y0112000D01*
X0011721Y0113178D01*
X0012250Y0112950D01*
X0013200Y0112000D01*
X0016050Y0112000D01*
X0029350Y0112000D01*
X0030300Y0112950D01*
X0030300Y0115800D01*
X0031131Y0115973D01*
X0031250Y0115800D01*
X0038850Y0115800D01*
X0039398Y0115973D01*
X0029350Y0120550D02*
X0057850Y0120550D01*
X0068300Y0110100D01*
X0068300Y0087300D01*
X0071150Y0079700D02*
X0057850Y0093000D01*
X0057850Y0095850D01*
X0046450Y0095850D01*
X0043600Y0092050D02*
X0055950Y0092050D01*
X0073050Y0074950D01*
X0076850Y0074950D01*
X0077548Y0074635D01*
X0081600Y0079700D02*
X0071150Y0079700D01*
X0070200Y0070200D02*
X0070200Y0063550D01*
X0074000Y0059750D01*
X0076850Y0059750D01*
X0077548Y0058887D01*
X0076850Y0051200D02*
X0074950Y0051200D01*
X0062600Y0063550D01*
X0062600Y0073050D01*
X0070200Y0070200D02*
X0052150Y0088250D01*
X0044550Y0088250D01*
X0043600Y0092050D02*
X0039800Y0088250D01*
X0033150Y0088250D01*
X0025550Y0095850D02*
X0027450Y0097750D01*
X0027450Y0108200D01*
X0027587Y0115973D02*
X0028400Y0116750D01*
X0028400Y0119600D01*
X0029350Y0120550D01*
X0025550Y0095850D02*
X0025550Y0086350D01*
X0059750Y0052150D01*
X0065450Y0052150D01*
X0070200Y0047400D01*
X0083500Y0047400D01*
X0085400Y0045500D01*
X0085400Y0040750D01*
X0080650Y0036000D01*
X0077800Y0036000D01*
X0077548Y0035265D01*
X0076850Y0042650D02*
X0073050Y0042650D01*
X0069250Y0038850D01*
X0065450Y0040750D02*
X0068300Y0043600D01*
X0065450Y0040750D02*
X0065450Y0036950D01*
X0071150Y0031250D01*
X0084450Y0031250D01*
X0085400Y0030300D01*
X0085400Y0016050D01*
X0083500Y0014150D01*
X0077548Y0019517D02*
X0076850Y0019850D01*
X0068300Y0019850D01*
X0036000Y0052150D01*
X0036000Y0053100D01*
X0032200Y0054050D02*
X0035050Y0056900D01*
X0036950Y0056900D01*
X0051200Y0042650D01*
X0040750Y0042650D02*
X0038850Y0042650D01*
X0021750Y0025550D01*
X0016050Y0019850D01*
X0013200Y0019850D01*
X0012981Y0019517D01*
X0019850Y0046450D02*
X0016050Y0050250D01*
X0013200Y0050250D01*
X0012981Y0051013D01*
X0013200Y0058800D02*
X0012981Y0058887D01*
X0013200Y0058800D02*
X0016050Y0058800D01*
X0024600Y0050250D01*
X0029350Y0050250D01*
X0032200Y0052150D02*
X0032200Y0054050D01*
X0032200Y0052150D02*
X0033150Y0051200D01*
X0033150Y0049300D01*
X0030300Y0046450D01*
X0019850Y0046450D01*
X0019850Y0088250D02*
X0010350Y0088250D01*
X0009674Y0088414D01*
X0050250Y0115800D02*
X0053100Y0112950D01*
X0056900Y0112950D01*
X0056918Y0112036D01*
X0057850Y0112000D01*
X0057850Y0095850D01*
X0077800Y0067350D02*
X0077548Y0066761D01*
X0077800Y0067350D02*
X0080650Y0067350D01*
X0085400Y0072100D01*
X0085400Y0080650D01*
X0080650Y0085400D01*
X0080650Y0088250D01*
X0080540Y0088414D01*
X0076850Y0051200D02*
X0077548Y0051013D01*
X0077548Y0043139D02*
X0076850Y0042650D01*
X0064500Y0042650D02*
X0062600Y0040750D01*
X0062600Y0030300D01*
X0064500Y0042650D02*
X0064500Y0048350D01*
D17*
X0064500Y0048350D03*
X0068300Y0043600D03*
X0069250Y0038850D03*
X0062600Y0030300D03*
X0051200Y0042650D03*
X0049300Y0054050D03*
X0053100Y0063550D03*
X0062600Y0073050D03*
X0068300Y0087300D03*
X0081600Y0079700D03*
X0050250Y0115800D03*
X0046450Y0095850D03*
X0044550Y0088250D03*
X0033150Y0088250D03*
X0025550Y0095850D03*
X0019850Y0088250D03*
X0023650Y0077800D03*
X0027450Y0070200D03*
X0036000Y0053100D03*
X0029350Y0050250D03*
X0040750Y0042650D03*
X0021750Y0025550D03*
X0016050Y0101550D03*
X0011300Y0101550D03*
X0027450Y0108200D03*
X0083500Y0014150D03*
D18*
X0085614Y0011456D02*
X0085614Y0004600D01*
X0069729Y0004600D01*
X0069893Y0004763D01*
X0069893Y0016729D01*
X0069965Y0016460D01*
X0070202Y0016049D01*
X0070537Y0015714D01*
X0070948Y0015477D01*
X0071406Y0015354D01*
X0077167Y0015354D01*
X0077167Y0019135D01*
X0077929Y0019135D01*
X0077929Y0015354D01*
X0080319Y0015354D01*
X0080100Y0014826D01*
X0080100Y0013474D01*
X0080618Y0012224D01*
X0081574Y0011268D01*
X0082824Y0010750D01*
X0084176Y0010750D01*
X0085426Y0011268D01*
X0085614Y0011456D01*
X0085614Y0011391D02*
X0085549Y0011391D01*
X0085614Y0009793D02*
X0069893Y0009793D01*
X0069893Y0011391D02*
X0081451Y0011391D01*
X0080301Y0012990D02*
X0069893Y0012990D01*
X0069893Y0014588D02*
X0080100Y0014588D01*
X0077929Y0016187D02*
X0077167Y0016187D01*
X0077167Y0017785D02*
X0077929Y0017785D01*
X0077167Y0019135D02*
X0069843Y0019135D01*
X0069843Y0017785D01*
X0069842Y0017785D01*
X0069843Y0017785D02*
X0069073Y0018554D01*
X0063189Y0018554D01*
X0062369Y0017734D01*
X0062369Y0004763D01*
X0062532Y0004600D01*
X0061855Y0004600D01*
X0062019Y0004763D01*
X0062019Y0017734D01*
X0061199Y0018554D01*
X0055315Y0018554D01*
X0054494Y0017734D01*
X0054494Y0004763D01*
X0054658Y0004600D01*
X0053981Y0004600D01*
X0054145Y0004763D01*
X0054145Y0017734D01*
X0053325Y0018554D01*
X0047441Y0018554D01*
X0046620Y0017734D01*
X0046620Y0004763D01*
X0046784Y0004600D01*
X0046107Y0004600D01*
X0046271Y0004763D01*
X0046271Y0017734D01*
X0045451Y0018554D01*
X0039567Y0018554D01*
X0038746Y0017734D01*
X0038746Y0004763D01*
X0038910Y0004600D01*
X0038233Y0004600D01*
X0038397Y0004763D01*
X0038397Y0017734D01*
X0037577Y0018554D01*
X0031693Y0018554D01*
X0030872Y0017734D01*
X0030872Y0004763D01*
X0031036Y0004600D01*
X0030359Y0004600D01*
X0030523Y0004763D01*
X0030523Y0017734D01*
X0029703Y0018554D01*
X0023819Y0018554D01*
X0022998Y0017734D01*
X0022998Y0004763D01*
X0023162Y0004600D01*
X0004600Y0004600D01*
X0004600Y0084437D01*
X0006049Y0082989D01*
X0008401Y0082014D01*
X0010947Y0082014D01*
X0013299Y0082989D01*
X0015100Y0084789D01*
X0015684Y0086200D01*
X0017092Y0086200D01*
X0017924Y0085368D01*
X0019174Y0084850D01*
X0020526Y0084850D01*
X0021600Y0085295D01*
X0021600Y0080558D01*
X0020768Y0079726D01*
X0020250Y0078476D01*
X0020250Y0077613D01*
X0019467Y0078397D01*
X0006496Y0078397D01*
X0005676Y0077577D01*
X0005676Y0071693D01*
X0006496Y0070872D01*
X0016278Y0070872D01*
X0016628Y0070523D01*
X0006496Y0070523D01*
X0005676Y0069703D01*
X0005676Y0063819D01*
X0006496Y0062998D01*
X0019467Y0062998D01*
X0020287Y0063819D01*
X0020287Y0068150D01*
X0024692Y0068150D01*
X0025524Y0067318D01*
X0026774Y0066800D01*
X0028126Y0066800D01*
X0029376Y0067318D01*
X0030208Y0068150D01*
X0032301Y0068150D01*
X0045900Y0054551D01*
X0042198Y0054551D01*
X0040600Y0056149D02*
X0044301Y0056149D01*
X0045900Y0054551D02*
X0045900Y0053374D01*
X0046418Y0052124D01*
X0047374Y0051168D01*
X0048624Y0050650D01*
X0049976Y0050650D01*
X0051226Y0051168D01*
X0052182Y0052124D01*
X0052700Y0053374D01*
X0052700Y0054726D01*
X0052182Y0055976D01*
X0051226Y0056932D01*
X0049976Y0057450D01*
X0048799Y0057450D01*
X0033999Y0072250D01*
X0030208Y0072250D01*
X0029376Y0073082D01*
X0028126Y0073600D01*
X0026774Y0073600D01*
X0025524Y0073082D01*
X0024692Y0072250D01*
X0020699Y0072250D01*
X0020287Y0072663D01*
X0020287Y0077035D01*
X0020768Y0075874D01*
X0021724Y0074918D01*
X0022974Y0074400D01*
X0024326Y0074400D01*
X0025576Y0074918D01*
X0026532Y0075874D01*
X0027050Y0077124D01*
X0027050Y0078476D01*
X0026532Y0079726D01*
X0025700Y0080558D01*
X0025700Y0083301D01*
X0057700Y0051301D01*
X0058901Y0050100D01*
X0061545Y0050100D01*
X0061100Y0049026D01*
X0061100Y0047674D01*
X0061618Y0046424D01*
X0062450Y0045592D01*
X0062450Y0043499D01*
X0061751Y0042800D01*
X0060550Y0041599D01*
X0060550Y0033058D01*
X0059718Y0032226D01*
X0059200Y0030976D01*
X0059200Y0029624D01*
X0059718Y0028374D01*
X0060674Y0027418D01*
X0061924Y0026900D01*
X0063276Y0026900D01*
X0064526Y0027418D01*
X0065482Y0028374D01*
X0066000Y0029624D01*
X0066000Y0030976D01*
X0065482Y0032226D01*
X0064650Y0033058D01*
X0064650Y0034851D01*
X0069100Y0030401D01*
X0070243Y0029258D01*
X0070243Y0024448D01*
X0071063Y0023628D01*
X0071218Y0023628D01*
X0070948Y0023556D01*
X0070537Y0023319D01*
X0070202Y0022984D01*
X0069965Y0022574D01*
X0069843Y0022116D01*
X0069843Y0019898D01*
X0077167Y0019898D01*
X0077167Y0019135D01*
X0077167Y0019384D02*
X0020287Y0019384D01*
X0020287Y0017785D02*
X0023049Y0017785D01*
X0022998Y0016187D02*
X0019899Y0016187D01*
X0020287Y0016574D02*
X0019467Y0015754D01*
X0006496Y0015754D01*
X0005676Y0016574D01*
X0005676Y0022459D01*
X0006496Y0023279D01*
X0016580Y0023279D01*
X0016929Y0023628D01*
X0006496Y0023628D01*
X0005676Y0024448D01*
X0005676Y0030333D01*
X0006496Y0031153D01*
X0019467Y0031153D01*
X0020287Y0030333D01*
X0020287Y0028624D01*
X0021074Y0028950D01*
X0022251Y0028950D01*
X0037861Y0044560D01*
X0037868Y0044576D01*
X0038824Y0045532D01*
X0040074Y0046050D01*
X0041426Y0046050D01*
X0042676Y0045532D01*
X0043632Y0044576D01*
X0044150Y0043326D01*
X0044150Y0041974D01*
X0043632Y0040724D01*
X0042676Y0039768D01*
X0041426Y0039250D01*
X0040074Y0039250D01*
X0038854Y0039755D01*
X0025150Y0026051D01*
X0025150Y0024874D01*
X0024632Y0023624D01*
X0023676Y0022668D01*
X0022426Y0022150D01*
X0021249Y0022150D01*
X0020287Y0021187D01*
X0020287Y0016574D01*
X0022998Y0014588D02*
X0004600Y0014588D01*
X0004600Y0012990D02*
X0022998Y0012990D01*
X0022998Y0011391D02*
X0004600Y0011391D01*
X0004600Y0009793D02*
X0022998Y0009793D01*
X0022998Y0008194D02*
X0004600Y0008194D01*
X0004600Y0006596D02*
X0022998Y0006596D01*
X0022998Y0004997D02*
X0004600Y0004997D01*
X0004600Y0016187D02*
X0006063Y0016187D01*
X0005676Y0017785D02*
X0004600Y0017785D01*
X0004600Y0019384D02*
X0005676Y0019384D01*
X0005676Y0020982D02*
X0004600Y0020982D01*
X0004600Y0022581D02*
X0005798Y0022581D01*
X0005945Y0024179D02*
X0004600Y0024179D01*
X0004600Y0025778D02*
X0005676Y0025778D01*
X0005676Y0027376D02*
X0004600Y0027376D01*
X0004600Y0028975D02*
X0005676Y0028975D01*
X0005916Y0030573D02*
X0004600Y0030573D01*
X0004600Y0032172D02*
X0005826Y0032172D01*
X0005676Y0032322D02*
X0006496Y0031502D01*
X0019467Y0031502D01*
X0020287Y0032322D01*
X0020287Y0038207D01*
X0019467Y0039027D01*
X0006496Y0039027D01*
X0005676Y0038207D01*
X0005676Y0032322D01*
X0005676Y0033770D02*
X0004600Y0033770D01*
X0004600Y0035369D02*
X0005676Y0035369D01*
X0005676Y0036967D02*
X0004600Y0036967D01*
X0004600Y0038566D02*
X0006035Y0038566D01*
X0006496Y0039376D02*
X0019467Y0039376D01*
X0020287Y0040196D01*
X0020287Y0044400D01*
X0031149Y0044400D01*
X0032350Y0045601D01*
X0035200Y0048451D01*
X0035200Y0052049D01*
X0034250Y0052999D01*
X0034250Y0053201D01*
X0035899Y0054850D01*
X0036101Y0054850D01*
X0047800Y0043151D01*
X0047800Y0041974D01*
X0048318Y0040724D01*
X0049274Y0039768D01*
X0050524Y0039250D01*
X0051876Y0039250D01*
X0053126Y0039768D01*
X0054082Y0040724D01*
X0054600Y0041974D01*
X0054600Y0043326D01*
X0054082Y0044576D01*
X0053126Y0045532D01*
X0051876Y0046050D01*
X0050699Y0046050D01*
X0039000Y0057749D01*
X0037799Y0058950D01*
X0034201Y0058950D01*
X0030150Y0054899D01*
X0030150Y0053599D01*
X0030026Y0053650D01*
X0028674Y0053650D01*
X0027424Y0053132D01*
X0026592Y0052300D01*
X0025449Y0052300D01*
X0020287Y0057463D01*
X0020287Y0061829D01*
X0019467Y0062649D01*
X0006496Y0062649D01*
X0005676Y0061829D01*
X0005676Y0055945D01*
X0006496Y0055124D01*
X0016826Y0055124D01*
X0017176Y0054775D01*
X0006496Y0054775D01*
X0005676Y0053955D01*
X0005676Y0048070D01*
X0006496Y0047250D01*
X0016150Y0047250D01*
X0016500Y0046901D01*
X0006496Y0046901D01*
X0005676Y0046081D01*
X0005676Y0040196D01*
X0006496Y0039376D01*
X0005708Y0040164D02*
X0004600Y0040164D01*
X0004600Y0041763D02*
X0005676Y0041763D01*
X0005676Y0043361D02*
X0004600Y0043361D01*
X0004600Y0044960D02*
X0005676Y0044960D01*
X0006153Y0046558D02*
X0004600Y0046558D01*
X0004600Y0048157D02*
X0005676Y0048157D01*
X0005676Y0049755D02*
X0004600Y0049755D01*
X0004600Y0051354D02*
X0005676Y0051354D01*
X0005676Y0052952D02*
X0004600Y0052952D01*
X0004600Y0054551D02*
X0006272Y0054551D01*
X0005676Y0056149D02*
X0004600Y0056149D01*
X0004600Y0057748D02*
X0005676Y0057748D01*
X0005676Y0059346D02*
X0004600Y0059346D01*
X0004600Y0060945D02*
X0005676Y0060945D01*
X0006390Y0062543D02*
X0004600Y0062543D01*
X0004600Y0064142D02*
X0005676Y0064142D01*
X0005676Y0065740D02*
X0004600Y0065740D01*
X0004600Y0067339D02*
X0005676Y0067339D01*
X0005676Y0068937D02*
X0004600Y0068937D01*
X0004600Y0070536D02*
X0016615Y0070536D01*
X0020287Y0073733D02*
X0035268Y0073733D01*
X0034115Y0072134D02*
X0036866Y0072134D01*
X0035713Y0070536D02*
X0038465Y0070536D01*
X0037312Y0068937D02*
X0040063Y0068937D01*
X0038910Y0067339D02*
X0041662Y0067339D01*
X0040509Y0065740D02*
X0043260Y0065740D01*
X0042107Y0064142D02*
X0044859Y0064142D01*
X0043706Y0062543D02*
X0046457Y0062543D01*
X0045304Y0060945D02*
X0048056Y0060945D01*
X0046903Y0059346D02*
X0049654Y0059346D01*
X0048501Y0057748D02*
X0051253Y0057748D01*
X0052009Y0056149D02*
X0052851Y0056149D01*
X0052700Y0054551D02*
X0054450Y0054551D01*
X0056048Y0052952D02*
X0052525Y0052952D01*
X0051412Y0051354D02*
X0057647Y0051354D01*
X0061402Y0049755D02*
X0046994Y0049755D01*
X0047188Y0051354D02*
X0045395Y0051354D01*
X0046075Y0052952D02*
X0043797Y0052952D01*
X0041196Y0049755D02*
X0035200Y0049755D01*
X0035200Y0051354D02*
X0039597Y0051354D01*
X0037998Y0052952D02*
X0034297Y0052952D01*
X0035600Y0054551D02*
X0036400Y0054551D01*
X0039001Y0057748D02*
X0042703Y0057748D01*
X0041104Y0059346D02*
X0020287Y0059346D01*
X0020287Y0057748D02*
X0032999Y0057748D01*
X0031400Y0056149D02*
X0021600Y0056149D01*
X0023198Y0054551D02*
X0030150Y0054551D01*
X0027244Y0052952D02*
X0024797Y0052952D01*
X0020287Y0060945D02*
X0039506Y0060945D01*
X0037907Y0062543D02*
X0019572Y0062543D01*
X0020287Y0064142D02*
X0036309Y0064142D01*
X0034710Y0065740D02*
X0020287Y0065740D01*
X0020287Y0067339D02*
X0025503Y0067339D01*
X0029397Y0067339D02*
X0033112Y0067339D01*
X0033669Y0075332D02*
X0025990Y0075332D01*
X0026970Y0076930D02*
X0032071Y0076930D01*
X0030472Y0078529D02*
X0027028Y0078529D01*
X0026131Y0080127D02*
X0028874Y0080127D01*
X0027275Y0081726D02*
X0025700Y0081726D01*
X0021600Y0081726D02*
X0004600Y0081726D01*
X0004600Y0083324D02*
X0005713Y0083324D01*
X0004600Y0080127D02*
X0021169Y0080127D01*
X0020272Y0078529D02*
X0004600Y0078529D01*
X0004600Y0076930D02*
X0005676Y0076930D01*
X0005676Y0075332D02*
X0004600Y0075332D01*
X0004600Y0073733D02*
X0005676Y0073733D01*
X0005676Y0072134D02*
X0004600Y0072134D01*
X0013635Y0083324D02*
X0021600Y0083324D01*
X0021600Y0084923D02*
X0020702Y0084923D01*
X0018998Y0084923D02*
X0015155Y0084923D01*
X0020287Y0076930D02*
X0020330Y0076930D01*
X0020287Y0075332D02*
X0021310Y0075332D01*
X0027600Y0090349D02*
X0027600Y0093092D01*
X0028432Y0093924D01*
X0028950Y0095174D01*
X0028950Y0096351D01*
X0029500Y0096901D01*
X0029500Y0105442D01*
X0030332Y0106274D01*
X0030850Y0107524D01*
X0030850Y0108876D01*
X0030332Y0110126D01*
X0029376Y0111082D01*
X0028126Y0111600D01*
X0026774Y0111600D01*
X0025524Y0111082D01*
X0024568Y0110126D01*
X0024050Y0108876D01*
X0024050Y0107524D01*
X0024568Y0106274D01*
X0025400Y0105442D01*
X0025400Y0099250D01*
X0024874Y0099250D01*
X0023624Y0098732D01*
X0022668Y0097776D01*
X0022150Y0096526D01*
X0022150Y0095174D01*
X0022668Y0093924D01*
X0023500Y0093092D01*
X0023500Y0092249D01*
X0014700Y0101049D01*
X0014700Y0102226D01*
X0014182Y0103476D01*
X0013226Y0104432D01*
X0011976Y0104950D01*
X0010921Y0104950D01*
X0010921Y0112378D01*
X0012521Y0112378D01*
X0012521Y0104912D01*
X0013344Y0105020D01*
X0014395Y0105302D01*
X0015400Y0105718D01*
X0016342Y0106262D01*
X0017206Y0106924D01*
X0017975Y0107694D01*
X0018637Y0108557D01*
X0019181Y0109499D01*
X0019598Y0110504D01*
X0019879Y0111555D01*
X0019988Y0112378D01*
X0012521Y0112378D01*
X0012521Y0113978D01*
X0010921Y0113978D01*
X0010921Y0121444D01*
X0010099Y0121336D01*
X0009048Y0121054D01*
X0008042Y0120638D01*
X0007100Y0120094D01*
X0006237Y0119432D01*
X0005468Y0118662D01*
X0004805Y0117799D01*
X0004600Y0117444D01*
X0004600Y0124984D01*
X0085614Y0124984D01*
X0085614Y0115489D01*
X0084718Y0117653D01*
X0082495Y0119875D01*
X0079592Y0121078D01*
X0076449Y0121078D01*
X0073545Y0119875D01*
X0071323Y0117653D01*
X0070120Y0114749D01*
X0070120Y0111607D01*
X0071323Y0108703D01*
X0073545Y0106481D01*
X0076449Y0105278D01*
X0079592Y0105278D01*
X0082495Y0106481D01*
X0084718Y0108703D01*
X0085614Y0110867D01*
X0085614Y0092391D01*
X0084165Y0093840D01*
X0081813Y0094814D01*
X0079267Y0094814D01*
X0076915Y0093840D01*
X0075114Y0092039D01*
X0074140Y0089687D01*
X0074140Y0087141D01*
X0075114Y0084789D01*
X0076915Y0082989D01*
X0079153Y0082061D01*
X0078842Y0081750D01*
X0071999Y0081750D01*
X0069593Y0084156D01*
X0070226Y0084418D01*
X0071182Y0085374D01*
X0071700Y0086624D01*
X0071700Y0087976D01*
X0071182Y0089226D01*
X0070350Y0090058D01*
X0070350Y0110949D01*
X0069149Y0112150D01*
X0058699Y0122600D01*
X0028501Y0122600D01*
X0027300Y0121399D01*
X0026350Y0120449D01*
X0026350Y0119873D01*
X0025757Y0119873D01*
X0024937Y0119053D01*
X0024937Y0112893D01*
X0025757Y0112073D01*
X0028735Y0112073D01*
X0028775Y0112033D01*
X0029186Y0111796D01*
X0029644Y0111673D01*
X0031131Y0111673D01*
X0032618Y0111673D01*
X0033075Y0111796D01*
X0033486Y0112033D01*
X0033821Y0112368D01*
X0034058Y0112778D01*
X0034181Y0113236D01*
X0034181Y0115973D01*
X0031131Y0115973D01*
X0031131Y0115973D01*
X0031131Y0111673D01*
X0031131Y0115973D01*
X0031131Y0115973D01*
X0034181Y0115973D01*
X0034181Y0118500D01*
X0036348Y0118500D01*
X0036348Y0115973D01*
X0036348Y0113236D01*
X0036471Y0112778D01*
X0036708Y0112368D01*
X0037043Y0112033D01*
X0037454Y0111796D01*
X0037911Y0111673D01*
X0039398Y0111673D01*
X0039398Y0115973D01*
X0036348Y0115973D01*
X0039398Y0115973D01*
X0039398Y0115973D01*
X0039398Y0115973D01*
X0039398Y0111673D01*
X0040600Y0111673D01*
X0040600Y0103349D01*
X0028501Y0091250D01*
X0027600Y0090349D01*
X0027600Y0091317D02*
X0028567Y0091317D01*
X0027600Y0092915D02*
X0030166Y0092915D01*
X0028677Y0094514D02*
X0031765Y0094514D01*
X0033363Y0096112D02*
X0028950Y0096112D01*
X0029500Y0097711D02*
X0034962Y0097711D01*
X0036560Y0099309D02*
X0029500Y0099309D01*
X0029500Y0100908D02*
X0038159Y0100908D01*
X0039757Y0102506D02*
X0029500Y0102506D01*
X0029500Y0104105D02*
X0040600Y0104105D01*
X0040600Y0105703D02*
X0029762Y0105703D01*
X0030758Y0107302D02*
X0040600Y0107302D01*
X0040600Y0108900D02*
X0030840Y0108900D01*
X0029960Y0110499D02*
X0040600Y0110499D01*
X0039398Y0112097D02*
X0039398Y0112097D01*
X0039398Y0113696D02*
X0039398Y0113696D01*
X0039398Y0115294D02*
X0039398Y0115294D01*
X0036979Y0112097D02*
X0033550Y0112097D01*
X0034181Y0113696D02*
X0036348Y0113696D01*
X0036348Y0115294D02*
X0034181Y0115294D01*
X0034181Y0116893D02*
X0036348Y0116893D01*
X0036348Y0118491D02*
X0034181Y0118491D01*
X0031131Y0115294D02*
X0031131Y0115294D01*
X0031131Y0113696D02*
X0031131Y0113696D01*
X0031131Y0112097D02*
X0031131Y0112097D01*
X0025733Y0112097D02*
X0019951Y0112097D01*
X0019595Y0110499D02*
X0024940Y0110499D01*
X0024060Y0108900D02*
X0018836Y0108900D01*
X0017583Y0107302D02*
X0024142Y0107302D01*
X0025138Y0105703D02*
X0015365Y0105703D01*
X0013554Y0104105D02*
X0025400Y0104105D01*
X0025400Y0102506D02*
X0014584Y0102506D01*
X0014841Y0100908D02*
X0025400Y0100908D01*
X0025400Y0099309D02*
X0016440Y0099309D01*
X0018038Y0097711D02*
X0022641Y0097711D01*
X0022150Y0096112D02*
X0019637Y0096112D01*
X0021235Y0094514D02*
X0022423Y0094514D01*
X0022834Y0092915D02*
X0023500Y0092915D01*
X0012521Y0105703D02*
X0010921Y0105703D01*
X0010921Y0107302D02*
X0012521Y0107302D01*
X0012521Y0108900D02*
X0010921Y0108900D01*
X0010921Y0110499D02*
X0012521Y0110499D01*
X0012521Y0112097D02*
X0010921Y0112097D01*
X0012521Y0113696D02*
X0024937Y0113696D01*
X0024937Y0115294D02*
X0019747Y0115294D01*
X0019879Y0114801D02*
X0019598Y0115852D01*
X0019181Y0116857D01*
X0018637Y0117799D01*
X0017975Y0118662D01*
X0017206Y0119432D01*
X0016342Y0120094D01*
X0015400Y0120638D01*
X0014395Y0121054D01*
X0013344Y0121336D01*
X0012521Y0121444D01*
X0012521Y0113978D01*
X0019988Y0113978D01*
X0019879Y0114801D01*
X0019160Y0116893D02*
X0024937Y0116893D01*
X0024937Y0118491D02*
X0018106Y0118491D01*
X0016348Y0120090D02*
X0026350Y0120090D01*
X0027589Y0121688D02*
X0004600Y0121688D01*
X0004600Y0120090D02*
X0007095Y0120090D01*
X0005336Y0118491D02*
X0004600Y0118491D01*
X0004600Y0123287D02*
X0085614Y0123287D01*
X0085614Y0124885D02*
X0004600Y0124885D01*
X0010921Y0120090D02*
X0012521Y0120090D01*
X0012521Y0118491D02*
X0010921Y0118491D01*
X0010921Y0116893D02*
X0012521Y0116893D01*
X0012521Y0115294D02*
X0010921Y0115294D01*
X0034906Y0048157D02*
X0042794Y0048157D01*
X0044393Y0046558D02*
X0033307Y0046558D01*
X0031709Y0044960D02*
X0038251Y0044960D01*
X0036662Y0043361D02*
X0020287Y0043361D01*
X0020287Y0041763D02*
X0035064Y0041763D01*
X0033465Y0040164D02*
X0020254Y0040164D01*
X0019928Y0038566D02*
X0031867Y0038566D01*
X0030268Y0036967D02*
X0020287Y0036967D01*
X0020287Y0035369D02*
X0028670Y0035369D01*
X0027071Y0033770D02*
X0020287Y0033770D01*
X0020136Y0032172D02*
X0025473Y0032172D01*
X0023874Y0030573D02*
X0020046Y0030573D01*
X0020287Y0028975D02*
X0022276Y0028975D01*
X0025150Y0025778D02*
X0070243Y0025778D01*
X0070512Y0024179D02*
X0024862Y0024179D01*
X0023466Y0022581D02*
X0069969Y0022581D01*
X0069843Y0020982D02*
X0020287Y0020982D01*
X0026475Y0027376D02*
X0060774Y0027376D01*
X0059469Y0028975D02*
X0028074Y0028975D01*
X0029672Y0030573D02*
X0059200Y0030573D01*
X0059695Y0032172D02*
X0031271Y0032172D01*
X0032869Y0033770D02*
X0060550Y0033770D01*
X0060550Y0035369D02*
X0034468Y0035369D01*
X0036066Y0036967D02*
X0060550Y0036967D01*
X0060550Y0038566D02*
X0037665Y0038566D01*
X0043073Y0040164D02*
X0048877Y0040164D01*
X0047887Y0041763D02*
X0044063Y0041763D01*
X0044135Y0043361D02*
X0047590Y0043361D01*
X0045991Y0044960D02*
X0043248Y0044960D01*
X0048592Y0048157D02*
X0061100Y0048157D01*
X0061562Y0046558D02*
X0050191Y0046558D01*
X0053698Y0044960D02*
X0062450Y0044960D01*
X0062312Y0043361D02*
X0054585Y0043361D01*
X0054513Y0041763D02*
X0060714Y0041763D01*
X0060550Y0040164D02*
X0053523Y0040164D01*
X0064426Y0027376D02*
X0070243Y0027376D01*
X0070243Y0028975D02*
X0065731Y0028975D01*
X0066000Y0030573D02*
X0068928Y0030573D01*
X0067329Y0032172D02*
X0065505Y0032172D01*
X0065731Y0033770D02*
X0064650Y0033770D01*
X0062419Y0017785D02*
X0061968Y0017785D01*
X0062019Y0016187D02*
X0062369Y0016187D01*
X0062369Y0014588D02*
X0062019Y0014588D01*
X0062019Y0012990D02*
X0062369Y0012990D01*
X0062369Y0011391D02*
X0062019Y0011391D01*
X0062019Y0009793D02*
X0062369Y0009793D01*
X0062369Y0008194D02*
X0062019Y0008194D01*
X0062019Y0006596D02*
X0062369Y0006596D01*
X0062369Y0004997D02*
X0062019Y0004997D01*
X0054494Y0004997D02*
X0054145Y0004997D01*
X0054145Y0006596D02*
X0054494Y0006596D01*
X0054494Y0008194D02*
X0054145Y0008194D01*
X0054145Y0009793D02*
X0054494Y0009793D01*
X0054494Y0011391D02*
X0054145Y0011391D01*
X0054145Y0012990D02*
X0054494Y0012990D01*
X0054494Y0014588D02*
X0054145Y0014588D01*
X0054145Y0016187D02*
X0054494Y0016187D01*
X0054545Y0017785D02*
X0054094Y0017785D01*
X0046671Y0017785D02*
X0046220Y0017785D01*
X0046271Y0016187D02*
X0046620Y0016187D01*
X0046620Y0014588D02*
X0046271Y0014588D01*
X0046271Y0012990D02*
X0046620Y0012990D01*
X0046620Y0011391D02*
X0046271Y0011391D01*
X0046271Y0009793D02*
X0046620Y0009793D01*
X0046620Y0008194D02*
X0046271Y0008194D01*
X0046271Y0006596D02*
X0046620Y0006596D01*
X0046620Y0004997D02*
X0046271Y0004997D01*
X0038746Y0004997D02*
X0038397Y0004997D01*
X0038397Y0006596D02*
X0038746Y0006596D01*
X0038746Y0008194D02*
X0038397Y0008194D01*
X0038397Y0009793D02*
X0038746Y0009793D01*
X0038746Y0011391D02*
X0038397Y0011391D01*
X0038397Y0012990D02*
X0038746Y0012990D01*
X0038746Y0014588D02*
X0038397Y0014588D01*
X0038397Y0016187D02*
X0038746Y0016187D01*
X0038797Y0017785D02*
X0038346Y0017785D01*
X0030923Y0017785D02*
X0030472Y0017785D01*
X0030523Y0016187D02*
X0030872Y0016187D01*
X0030872Y0014588D02*
X0030523Y0014588D01*
X0030523Y0012990D02*
X0030872Y0012990D01*
X0030872Y0011391D02*
X0030523Y0011391D01*
X0030523Y0009793D02*
X0030872Y0009793D01*
X0030872Y0008194D02*
X0030523Y0008194D01*
X0030523Y0006596D02*
X0030872Y0006596D01*
X0030872Y0004997D02*
X0030523Y0004997D01*
X0069893Y0004997D02*
X0085614Y0004997D01*
X0085614Y0006596D02*
X0069893Y0006596D01*
X0069893Y0008194D02*
X0085614Y0008194D01*
X0070123Y0016187D02*
X0069893Y0016187D01*
X0070425Y0083324D02*
X0076579Y0083324D01*
X0075059Y0084923D02*
X0070731Y0084923D01*
X0071657Y0086521D02*
X0074397Y0086521D01*
X0074140Y0088120D02*
X0071641Y0088120D01*
X0070690Y0089718D02*
X0074153Y0089718D01*
X0074815Y0091317D02*
X0070350Y0091317D01*
X0070350Y0092915D02*
X0075990Y0092915D01*
X0078542Y0094514D02*
X0070350Y0094514D01*
X0070350Y0096112D02*
X0085614Y0096112D01*
X0085614Y0097711D02*
X0070350Y0097711D01*
X0070350Y0099309D02*
X0085614Y0099309D01*
X0085614Y0100908D02*
X0070350Y0100908D01*
X0070350Y0102506D02*
X0085614Y0102506D01*
X0085614Y0104105D02*
X0070350Y0104105D01*
X0070350Y0105703D02*
X0075422Y0105703D01*
X0072724Y0107302D02*
X0070350Y0107302D01*
X0070350Y0108900D02*
X0071241Y0108900D01*
X0070579Y0110499D02*
X0070350Y0110499D01*
X0070120Y0112097D02*
X0069202Y0112097D01*
X0070120Y0113696D02*
X0067603Y0113696D01*
X0066005Y0115294D02*
X0070346Y0115294D01*
X0071008Y0116893D02*
X0064406Y0116893D01*
X0062808Y0118491D02*
X0072162Y0118491D01*
X0074064Y0120090D02*
X0061209Y0120090D01*
X0059611Y0121688D02*
X0085614Y0121688D01*
X0085614Y0120090D02*
X0081977Y0120090D01*
X0083879Y0118491D02*
X0085614Y0118491D01*
X0085614Y0116893D02*
X0085033Y0116893D01*
X0085462Y0110499D02*
X0085614Y0110499D01*
X0085614Y0108900D02*
X0084799Y0108900D01*
X0085614Y0107302D02*
X0083317Y0107302D01*
X0085614Y0105703D02*
X0080619Y0105703D01*
X0082539Y0094514D02*
X0085614Y0094514D01*
X0085614Y0092915D02*
X0085090Y0092915D01*
M02*
