G75*
%MOIN*%
%OFA0B0*%
%FSLAX25Y25*%
%IPPOS*%
%LPD*%
%AMOC8*
5,1,8,0,0,1.08239X$1,22.5*
%
%ADD10R,0.05512X0.02559*%
%ADD11R,0.02559X0.05512*%
%ADD12C,0.00500*%
%ADD13C,0.00800*%
D10*
X0035141Y0041086D03*
X0035141Y0046886D03*
X0058999Y0048854D03*
X0058999Y0043054D03*
X0059011Y0061006D03*
X0059011Y0066806D03*
D11*
X0075454Y0066637D03*
X0081254Y0066637D03*
X0081569Y0046952D03*
X0075769Y0046952D03*
X0077149Y0027515D03*
X0082949Y0027515D03*
X0058382Y0110192D03*
X0052582Y0110192D03*
D12*
X0012863Y0050658D02*
X0012863Y0038847D01*
X0019162Y0038847D01*
X0019162Y0050658D01*
X0012863Y0050658D01*
X0006898Y0084851D02*
X0006898Y0095048D01*
X0024969Y0095048D01*
X0024969Y0084851D01*
X0006898Y0084851D01*
X0027528Y0084851D02*
X0027528Y0095048D01*
X0045599Y0095048D01*
X0045599Y0084851D01*
X0027528Y0084851D01*
X0046898Y0084851D02*
X0046898Y0095048D01*
X0064969Y0095048D01*
X0064969Y0084851D01*
X0046898Y0084851D01*
X0066269Y0084851D02*
X0066269Y0095048D01*
X0084339Y0095048D01*
X0084339Y0084851D01*
X0066269Y0084851D01*
D13*
X0020750Y0056069D02*
X0020750Y0052566D01*
X0020050Y0051865D01*
X0018649Y0051865D01*
X0017948Y0052566D01*
X0017948Y0056069D01*
X0016146Y0055368D02*
X0015446Y0056069D01*
X0014045Y0056069D01*
X0013344Y0055368D01*
X0013344Y0054668D01*
X0014045Y0053967D01*
X0013344Y0053267D01*
X0013344Y0052566D01*
X0014045Y0051865D01*
X0015446Y0051865D01*
X0016146Y0052566D01*
X0014745Y0053967D02*
X0014045Y0053967D01*
M02*
