%
M48
M72
T01C0.02400
T02C0.07874
%
T01
X21750Y25550
X29350Y50250
X36000Y53100
X40750Y42650
X49300Y54050
X53100Y63550
X62600Y73050
X68300Y87300
X81600Y79700
X64500Y48350
X68300Y43600
X69250Y38850
X62600Y30300
X51200Y42650
X27450Y70200
X23650Y77800
X19850Y88250
X25550Y95850
X33150Y88250
X44550Y88250
X46450Y95850
X50250Y115800
X27450Y108200
X16050Y101550
X11300Y101550
X83500Y14150
T02
X78020Y113178
X11721Y113178
M30
