G75*
%MOIN*%
%OFA0B0*%
%FSLAX25Y25*%
%IPPOS*%
%LPD*%
%AMOC8*
5,1,8,0,0,1.08239X$1,22.5*
%
%ADD10C,0.13800*%
%ADD11R,0.12611X0.05524*%
%ADD12R,0.05524X0.12611*%
%ADD13C,0.10800*%
%ADD14R,0.03300X0.05800*%
%ADD15C,0.04800*%
D10*
X0011721Y0113178D03*
X0078020Y0113178D03*
D11*
X0012981Y0019517D03*
X0012981Y0027391D03*
X0012981Y0035265D03*
X0012981Y0043139D03*
X0012981Y0051013D03*
X0012981Y0058887D03*
X0012981Y0066761D03*
X0012981Y0074635D03*
X0077548Y0074635D03*
X0077548Y0066761D03*
X0077548Y0058887D03*
X0077548Y0051013D03*
X0077548Y0043139D03*
X0077548Y0035265D03*
X0077548Y0027391D03*
X0077548Y0019517D03*
D12*
X0066131Y0011249D03*
X0058257Y0011249D03*
X0050383Y0011249D03*
X0042509Y0011249D03*
X0034635Y0011249D03*
X0026761Y0011249D03*
D13*
X0009674Y0088414D03*
X0056918Y0112036D03*
X0080540Y0088414D03*
D14*
X0042942Y0115973D03*
X0039398Y0115973D03*
X0031131Y0115973D03*
X0027587Y0115973D03*
D15*
X0027450Y0108200D03*
X0025550Y0095850D03*
X0019850Y0088250D03*
X0023650Y0077800D03*
X0027450Y0070200D03*
X0033150Y0088250D03*
X0044550Y0088250D03*
X0046450Y0095850D03*
X0050250Y0115800D03*
X0068300Y0087300D03*
X0062600Y0073050D03*
X0053100Y0063550D03*
X0049300Y0054050D03*
X0051200Y0042650D03*
X0040750Y0042650D03*
X0036000Y0053100D03*
X0029350Y0050250D03*
X0021750Y0025550D03*
X0062600Y0030300D03*
X0069250Y0038850D03*
X0068300Y0043600D03*
X0064500Y0048350D03*
X0081600Y0079700D03*
X0083500Y0014150D03*
X0016050Y0101550D03*
X0011300Y0101550D03*
M02*
