G75*
%MOIN*%
%OFA0B0*%
%FSLAX25Y25*%
%IPPOS*%
%LPD*%
%AMOC8*
5,1,8,0,0,1.08239X$1,22.5*
%
%ADD10C,0.00500*%
%ADD11C,0.02400*%
%ADD12C,0.00400*%
%ADD13C,0.00800*%
D10*
X0013769Y0013217D02*
X0022824Y0013217D01*
X0013769Y0078965D02*
X0013769Y0107706D01*
X0076761Y0107706D01*
X0076761Y0078965D01*
X0076761Y0013217D02*
X0070068Y0013217D01*
D11*
X0051957Y0082902D02*
X0026367Y0082902D01*
X0026367Y0085265D01*
X0026367Y0085658D02*
X0026367Y0104950D01*
X0029910Y0104950D01*
X0029910Y0090383D01*
X0033847Y0090383D01*
X0033847Y0104556D01*
X0038572Y0104556D01*
X0038572Y0090383D01*
X0043296Y0090383D01*
X0043296Y0104556D01*
X0047627Y0104556D01*
X0047627Y0090776D01*
X0051957Y0090776D01*
X0051957Y0104556D01*
X0067706Y0104556D01*
D12*
X0067375Y0069015D02*
X0063906Y0069015D01*
X0063906Y0063811D01*
X0067375Y0063811D01*
X0065640Y0066413D02*
X0063906Y0066413D01*
X0062219Y0067281D02*
X0062219Y0068148D01*
X0061351Y0069015D01*
X0059617Y0069015D01*
X0058749Y0068148D01*
X0055328Y0069015D02*
X0055328Y0063811D01*
X0057062Y0063811D02*
X0053593Y0063811D01*
X0053593Y0067281D02*
X0055328Y0069015D01*
X0058749Y0063811D02*
X0062219Y0067281D01*
X0062219Y0063811D02*
X0058749Y0063811D01*
X0046750Y0066413D02*
X0043280Y0066413D01*
X0036437Y0066413D02*
X0035569Y0065546D01*
X0032967Y0065546D01*
X0032967Y0063811D02*
X0032967Y0069015D01*
X0035569Y0069015D01*
X0036437Y0068148D01*
X0036437Y0066413D01*
X0031280Y0065546D02*
X0031280Y0064678D01*
X0030413Y0063811D01*
X0028678Y0063811D01*
X0027811Y0064678D01*
X0026124Y0063811D02*
X0022654Y0063811D01*
X0022654Y0069015D01*
X0026124Y0069015D01*
X0027811Y0068148D02*
X0027811Y0067281D01*
X0028678Y0066413D01*
X0030413Y0066413D01*
X0031280Y0065546D01*
X0031280Y0068148D02*
X0030413Y0069015D01*
X0028678Y0069015D01*
X0027811Y0068148D01*
X0024389Y0066413D02*
X0022654Y0066413D01*
D13*
X0026209Y0112036D02*
X0032509Y0112036D01*
X0032509Y0112035D02*
X0032568Y0112049D01*
X0032626Y0112066D01*
X0032683Y0112087D01*
X0032739Y0112111D01*
X0032793Y0112139D01*
X0032845Y0112169D01*
X0032896Y0112203D01*
X0032944Y0112240D01*
X0032990Y0112279D01*
X0033033Y0112322D01*
X0033074Y0112366D01*
X0033112Y0112414D01*
X0033147Y0112463D01*
X0033179Y0112515D01*
X0033208Y0112568D01*
X0033234Y0112623D01*
X0033256Y0112679D01*
X0033275Y0112737D01*
X0033291Y0112796D01*
X0033302Y0112855D01*
X0033311Y0112915D01*
X0033315Y0112976D01*
X0033316Y0113036D01*
X0033313Y0113097D01*
X0033307Y0113157D01*
X0033297Y0113217D01*
X0033297Y0118729D02*
X0033307Y0118789D01*
X0033313Y0118849D01*
X0033316Y0118910D01*
X0033315Y0118970D01*
X0033311Y0119031D01*
X0033302Y0119091D01*
X0033291Y0119150D01*
X0033275Y0119209D01*
X0033256Y0119267D01*
X0033234Y0119323D01*
X0033208Y0119378D01*
X0033179Y0119431D01*
X0033147Y0119483D01*
X0033112Y0119532D01*
X0033074Y0119580D01*
X0033033Y0119624D01*
X0032990Y0119667D01*
X0032944Y0119706D01*
X0032896Y0119743D01*
X0032845Y0119777D01*
X0032793Y0119807D01*
X0032739Y0119835D01*
X0032683Y0119859D01*
X0032626Y0119880D01*
X0032568Y0119897D01*
X0032509Y0119911D01*
X0032509Y0119910D02*
X0026209Y0119910D01*
X0026209Y0119911D02*
X0026150Y0119897D01*
X0026092Y0119880D01*
X0026035Y0119859D01*
X0025979Y0119835D01*
X0025925Y0119807D01*
X0025873Y0119777D01*
X0025822Y0119743D01*
X0025774Y0119706D01*
X0025728Y0119667D01*
X0025685Y0119624D01*
X0025644Y0119580D01*
X0025606Y0119532D01*
X0025571Y0119483D01*
X0025539Y0119431D01*
X0025510Y0119378D01*
X0025484Y0119323D01*
X0025462Y0119267D01*
X0025443Y0119209D01*
X0025427Y0119150D01*
X0025416Y0119091D01*
X0025407Y0119031D01*
X0025403Y0118970D01*
X0025402Y0118910D01*
X0025405Y0118849D01*
X0025411Y0118789D01*
X0025421Y0118729D01*
X0025421Y0113217D02*
X0025411Y0113157D01*
X0025405Y0113097D01*
X0025402Y0113036D01*
X0025403Y0112976D01*
X0025407Y0112915D01*
X0025416Y0112855D01*
X0025427Y0112796D01*
X0025443Y0112737D01*
X0025462Y0112679D01*
X0025484Y0112623D01*
X0025510Y0112568D01*
X0025539Y0112515D01*
X0025571Y0112463D01*
X0025606Y0112414D01*
X0025644Y0112366D01*
X0025685Y0112322D01*
X0025728Y0112279D01*
X0025774Y0112240D01*
X0025822Y0112203D01*
X0025873Y0112169D01*
X0025925Y0112139D01*
X0025979Y0112111D01*
X0026035Y0112087D01*
X0026092Y0112066D01*
X0026150Y0112049D01*
X0026209Y0112035D01*
X0038020Y0112036D02*
X0044320Y0112036D01*
X0044320Y0112035D02*
X0044379Y0112049D01*
X0044437Y0112066D01*
X0044494Y0112087D01*
X0044550Y0112111D01*
X0044604Y0112139D01*
X0044656Y0112169D01*
X0044707Y0112203D01*
X0044755Y0112240D01*
X0044801Y0112279D01*
X0044844Y0112322D01*
X0044885Y0112366D01*
X0044923Y0112414D01*
X0044958Y0112463D01*
X0044990Y0112515D01*
X0045019Y0112568D01*
X0045045Y0112623D01*
X0045067Y0112679D01*
X0045086Y0112737D01*
X0045102Y0112796D01*
X0045113Y0112855D01*
X0045122Y0112915D01*
X0045126Y0112976D01*
X0045127Y0113036D01*
X0045124Y0113097D01*
X0045118Y0113157D01*
X0045108Y0113217D01*
X0045108Y0118729D02*
X0045118Y0118789D01*
X0045124Y0118849D01*
X0045127Y0118910D01*
X0045126Y0118970D01*
X0045122Y0119031D01*
X0045113Y0119091D01*
X0045102Y0119150D01*
X0045086Y0119209D01*
X0045067Y0119267D01*
X0045045Y0119323D01*
X0045019Y0119378D01*
X0044990Y0119431D01*
X0044958Y0119483D01*
X0044923Y0119532D01*
X0044885Y0119580D01*
X0044844Y0119624D01*
X0044801Y0119667D01*
X0044755Y0119706D01*
X0044707Y0119743D01*
X0044656Y0119777D01*
X0044604Y0119807D01*
X0044550Y0119835D01*
X0044494Y0119859D01*
X0044437Y0119880D01*
X0044379Y0119897D01*
X0044320Y0119911D01*
X0044320Y0119910D02*
X0038020Y0119910D01*
X0038020Y0119911D02*
X0037961Y0119897D01*
X0037903Y0119880D01*
X0037846Y0119859D01*
X0037790Y0119835D01*
X0037736Y0119807D01*
X0037684Y0119777D01*
X0037633Y0119743D01*
X0037585Y0119706D01*
X0037539Y0119667D01*
X0037496Y0119624D01*
X0037455Y0119580D01*
X0037417Y0119532D01*
X0037382Y0119483D01*
X0037350Y0119431D01*
X0037321Y0119378D01*
X0037295Y0119323D01*
X0037273Y0119267D01*
X0037254Y0119209D01*
X0037238Y0119150D01*
X0037227Y0119091D01*
X0037218Y0119031D01*
X0037214Y0118970D01*
X0037213Y0118910D01*
X0037216Y0118849D01*
X0037222Y0118789D01*
X0037232Y0118729D01*
X0037232Y0113217D02*
X0037222Y0113157D01*
X0037216Y0113097D01*
X0037213Y0113036D01*
X0037214Y0112976D01*
X0037218Y0112915D01*
X0037227Y0112855D01*
X0037238Y0112796D01*
X0037254Y0112737D01*
X0037273Y0112679D01*
X0037295Y0112623D01*
X0037321Y0112568D01*
X0037350Y0112515D01*
X0037382Y0112463D01*
X0037417Y0112414D01*
X0037455Y0112366D01*
X0037496Y0112322D01*
X0037539Y0112279D01*
X0037585Y0112240D01*
X0037633Y0112203D01*
X0037684Y0112169D01*
X0037736Y0112139D01*
X0037790Y0112111D01*
X0037846Y0112087D01*
X0037903Y0112066D01*
X0037961Y0112049D01*
X0038020Y0112035D01*
M02*
