G75*
%MOIN*%
%OFA0B0*%
%FSLAX25Y25*%
%IPPOS*%
%LPD*%
%AMOC8*
5,1,8,0,0,1.08239X$1,22.5*
%
%ADD10R,0.05118X0.06299*%
%ADD11R,0.05906X0.05118*%
%ADD12C,0.13000*%
%ADD13R,0.05512X0.04331*%
%ADD14R,0.04331X0.05512*%
%ADD15R,0.01890X0.04685*%
%ADD16R,0.02165X0.04685*%
%ADD17R,0.07165X0.01811*%
%ADD18R,0.02756X0.01969*%
%ADD19C,0.10000*%
%ADD20C,0.01300*%
%ADD21C,0.04000*%
%ADD22C,0.01600*%
D10*
X0035304Y0108572D03*
X0043178Y0108572D03*
D11*
X0037587Y0069320D03*
X0037587Y0061839D03*
D12*
X0011721Y0113178D03*
X0078020Y0113178D03*
D13*
X0059005Y0067863D03*
X0059005Y0059989D03*
X0059005Y0049871D03*
X0059005Y0041997D03*
X0035146Y0040028D03*
X0035146Y0047902D03*
D14*
X0074438Y0066643D03*
X0082312Y0066643D03*
X0082627Y0046957D03*
X0074753Y0046957D03*
X0076091Y0027509D03*
X0083965Y0027509D03*
X0059398Y0110186D03*
X0051524Y0110186D03*
D15*
X0050068Y0095954D03*
X0042430Y0095954D03*
X0030698Y0095954D03*
X0021800Y0095954D03*
X0010068Y0095954D03*
X0061800Y0095954D03*
X0069438Y0095954D03*
X0081170Y0095954D03*
D16*
X0075304Y0095954D03*
X0055934Y0095954D03*
X0036564Y0095954D03*
X0015934Y0095954D03*
D17*
X0015934Y0082509D03*
X0036564Y0082509D03*
X0055934Y0082509D03*
X0075304Y0082509D03*
D18*
X0021583Y0048493D03*
X0021583Y0041013D03*
X0010343Y0044753D03*
D19*
X0013611Y0017548D03*
X0029359Y0017548D03*
X0045107Y0017548D03*
X0060855Y0017548D03*
D20*
X0014150Y0017000D02*
X0013611Y0017548D01*
X0014150Y0017000D02*
X0022700Y0008450D01*
X0060700Y0008450D01*
X0067350Y0015100D01*
X0067350Y0020800D01*
X0062600Y0025550D01*
X0062600Y0030300D01*
X0066400Y0030300D02*
X0066400Y0036950D01*
X0063550Y0039800D01*
X0063550Y0044550D01*
X0061650Y0046450D01*
X0055000Y0046450D01*
X0049300Y0052150D01*
X0049300Y0054050D01*
X0049300Y0064500D01*
X0052150Y0067350D01*
X0058800Y0067350D01*
X0059005Y0067863D01*
X0055950Y0063550D02*
X0058800Y0060700D01*
X0059005Y0059989D01*
X0059750Y0059750D01*
X0059750Y0050250D01*
X0059005Y0049871D01*
X0064500Y0048350D02*
X0066400Y0050250D01*
X0066400Y0074000D01*
X0064500Y0075900D01*
X0064500Y0088250D01*
X0069250Y0093000D01*
X0069250Y0095850D01*
X0069438Y0095954D01*
X0072100Y0099650D02*
X0058800Y0099650D01*
X0055950Y0096800D01*
X0055934Y0095954D01*
X0055000Y0096800D01*
X0052150Y0099650D01*
X0039800Y0099650D01*
X0036950Y0096800D01*
X0036564Y0095954D01*
X0036950Y0095850D01*
X0036950Y0082550D01*
X0036564Y0082509D01*
X0036000Y0082550D01*
X0023650Y0082550D01*
X0018900Y0077800D01*
X0020800Y0075900D01*
X0020800Y0049300D01*
X0021583Y0048493D01*
X0020800Y0048350D01*
X0014150Y0041700D01*
X0008450Y0041700D01*
X0007500Y0042650D01*
X0007500Y0083500D01*
X0015100Y0091100D01*
X0015100Y0095850D01*
X0015934Y0095954D01*
X0016050Y0096800D01*
X0016050Y0101550D01*
X0011300Y0101550D02*
X0010350Y0100600D01*
X0010350Y0096800D01*
X0010068Y0095954D01*
X0005600Y0100600D02*
X0005600Y0035050D01*
X0022700Y0017950D01*
X0022700Y0015100D01*
X0027450Y0010350D01*
X0054050Y0010350D01*
X0060700Y0017000D01*
X0060855Y0017548D01*
X0066400Y0030300D02*
X0074000Y0022700D01*
X0078750Y0022700D01*
X0079700Y0023650D01*
X0079700Y0030300D01*
X0082550Y0033150D01*
X0082550Y0046450D01*
X0082627Y0046957D01*
X0078750Y0043600D02*
X0078750Y0063550D01*
X0081600Y0066400D01*
X0082312Y0066643D01*
X0082550Y0067350D01*
X0085400Y0070200D01*
X0085400Y0080650D01*
X0081600Y0084450D01*
X0081600Y0095850D01*
X0081170Y0095954D01*
X0075900Y0095850D02*
X0075304Y0095954D01*
X0074950Y0096800D01*
X0072100Y0099650D01*
X0075900Y0095850D02*
X0075900Y0082550D01*
X0075304Y0082509D01*
X0081600Y0079700D02*
X0074950Y0073050D01*
X0074950Y0067350D01*
X0074438Y0066643D01*
X0074950Y0066400D01*
X0074950Y0047400D01*
X0074753Y0046957D01*
X0078750Y0043600D02*
X0076850Y0041700D01*
X0076850Y0038850D01*
X0069250Y0038850D01*
X0068300Y0043600D02*
X0068300Y0087300D01*
X0062600Y0095850D02*
X0061800Y0095954D01*
X0062600Y0095850D02*
X0062600Y0073050D01*
X0055934Y0082509D02*
X0055950Y0082550D01*
X0055950Y0095850D01*
X0055934Y0095954D01*
X0050250Y0095850D02*
X0050068Y0095954D01*
X0050250Y0095850D02*
X0050250Y0068300D01*
X0046450Y0064500D01*
X0046450Y0055950D01*
X0045500Y0055000D01*
X0045500Y0017950D01*
X0045107Y0017548D01*
X0029359Y0017548D02*
X0029350Y0017950D01*
X0027450Y0019850D01*
X0027450Y0047400D01*
X0023650Y0051200D01*
X0023650Y0077800D01*
X0018900Y0077800D02*
X0016050Y0080650D01*
X0016050Y0082550D01*
X0015934Y0082509D01*
X0019850Y0088250D02*
X0033150Y0088250D01*
X0032200Y0092050D02*
X0034100Y0093950D01*
X0034100Y0098700D01*
X0036950Y0101550D01*
X0066400Y0101550D01*
X0077800Y0112950D01*
X0078020Y0113178D01*
X0063550Y0112950D02*
X0063550Y0107250D01*
X0061650Y0105350D01*
X0056900Y0105350D01*
X0052150Y0110100D01*
X0051524Y0110186D01*
X0050250Y0114850D02*
X0050250Y0115800D01*
X0050250Y0114850D02*
X0055000Y0114850D01*
X0058800Y0111050D01*
X0059398Y0110186D01*
X0063550Y0112950D02*
X0056900Y0119600D01*
X0038850Y0119600D01*
X0027450Y0108200D01*
X0026500Y0103450D02*
X0017000Y0112950D01*
X0012250Y0112950D01*
X0011721Y0113178D01*
X0010350Y0105350D02*
X0005600Y0100600D01*
X0010350Y0105350D02*
X0021750Y0105350D01*
X0030300Y0096800D01*
X0030698Y0095954D01*
X0032200Y0092050D02*
X0018900Y0092050D01*
X0010350Y0083500D01*
X0010350Y0045500D01*
X0010343Y0044753D01*
X0021583Y0041013D02*
X0021750Y0040750D01*
X0021750Y0025550D01*
X0035146Y0040028D02*
X0035050Y0040750D01*
X0029350Y0046450D01*
X0029350Y0050250D01*
X0035146Y0047902D02*
X0036000Y0048350D01*
X0044550Y0056900D01*
X0044550Y0083500D01*
X0048350Y0087300D01*
X0048350Y0092050D01*
X0046450Y0093950D01*
X0046450Y0095850D01*
X0042650Y0095850D02*
X0042650Y0090150D01*
X0044550Y0088250D01*
X0042650Y0095850D02*
X0042430Y0095954D01*
X0037900Y0103450D02*
X0026500Y0103450D01*
X0022700Y0095850D02*
X0021800Y0095954D01*
X0022700Y0095850D02*
X0025550Y0095850D01*
X0035304Y0108572D02*
X0036000Y0109150D01*
X0041700Y0114850D01*
X0050250Y0114850D01*
X0043178Y0108572D02*
X0042650Y0108200D01*
X0037900Y0103450D01*
X0036950Y0082550D02*
X0042650Y0076850D01*
X0042650Y0066400D01*
X0041700Y0065450D01*
X0040750Y0065450D01*
X0037900Y0062600D01*
X0037587Y0061839D01*
X0036950Y0061650D01*
X0036000Y0060700D01*
X0036000Y0053100D01*
X0035146Y0047902D02*
X0036000Y0047400D01*
X0040750Y0042650D01*
X0051200Y0042650D02*
X0058800Y0042650D01*
X0059005Y0041997D01*
X0055950Y0063550D02*
X0053100Y0063550D01*
X0037587Y0069320D02*
X0036950Y0070200D01*
X0027450Y0070200D01*
X0076850Y0028400D02*
X0076091Y0027509D01*
X0076850Y0028400D02*
X0076850Y0038850D01*
X0083500Y0027450D02*
X0083965Y0027509D01*
X0083500Y0027450D02*
X0083500Y0014150D01*
D21*
X0083500Y0014150D03*
X0069250Y0038850D03*
X0068300Y0043600D03*
X0064500Y0048350D03*
X0053100Y0063550D03*
X0049300Y0054050D03*
X0051200Y0042650D03*
X0040750Y0042650D03*
X0036000Y0053100D03*
X0029350Y0050250D03*
X0027450Y0070200D03*
X0023650Y0077800D03*
X0019850Y0088250D03*
X0025550Y0095850D03*
X0033150Y0088250D03*
X0044550Y0088250D03*
X0046450Y0095850D03*
X0050250Y0115800D03*
X0068300Y0087300D03*
X0062600Y0073050D03*
X0081600Y0079700D03*
X0062600Y0030300D03*
X0021750Y0025550D03*
X0016050Y0101550D03*
X0011300Y0101550D03*
X0027450Y0108200D03*
D22*
X0025138Y0105703D02*
X0024296Y0105703D01*
X0024568Y0106274D02*
X0025524Y0105318D01*
X0026774Y0104800D01*
X0028126Y0104800D01*
X0029376Y0105318D01*
X0030332Y0106274D01*
X0030850Y0107524D01*
X0030850Y0108701D01*
X0031345Y0109196D01*
X0031345Y0104842D01*
X0032165Y0104022D01*
X0038443Y0104022D01*
X0039017Y0104596D01*
X0039179Y0104317D01*
X0039514Y0103982D01*
X0039924Y0103745D01*
X0040382Y0103622D01*
X0042698Y0103622D01*
X0042698Y0108092D01*
X0039263Y0108092D01*
X0039263Y0109051D01*
X0042698Y0109051D01*
X0042698Y0108092D01*
X0043657Y0108092D01*
X0043657Y0103622D01*
X0045974Y0103622D01*
X0046432Y0103745D01*
X0046842Y0103982D01*
X0047177Y0104317D01*
X0047414Y0104727D01*
X0047537Y0105185D01*
X0047537Y0108092D01*
X0043658Y0108092D01*
X0043658Y0109051D01*
X0047537Y0109051D01*
X0047537Y0111958D01*
X0047414Y0112416D01*
X0047193Y0112800D01*
X0047959Y0112800D01*
X0047959Y0106850D01*
X0048779Y0106030D01*
X0053321Y0106030D01*
X0054850Y0104501D01*
X0055751Y0103600D01*
X0036101Y0103600D01*
X0034900Y0102399D01*
X0032197Y0099696D01*
X0030303Y0099696D01*
X0023800Y0106199D01*
X0022599Y0107400D01*
X0017681Y0107400D01*
X0017975Y0107694D01*
X0018637Y0108557D01*
X0019181Y0109499D01*
X0019598Y0110504D01*
X0019879Y0111555D01*
X0019988Y0112378D01*
X0012521Y0112378D01*
X0012521Y0113978D01*
X0010921Y0113978D01*
X0010921Y0121444D01*
X0010099Y0121336D01*
X0009048Y0121054D01*
X0008042Y0120638D01*
X0007100Y0120094D01*
X0006237Y0119432D01*
X0005468Y0118662D01*
X0004805Y0117799D01*
X0004600Y0117444D01*
X0004600Y0124984D01*
X0085614Y0124984D01*
X0085614Y0115489D01*
X0084718Y0117653D01*
X0082495Y0119875D01*
X0079592Y0121078D01*
X0076449Y0121078D01*
X0073545Y0119875D01*
X0071323Y0117653D01*
X0070120Y0114749D01*
X0070120Y0111607D01*
X0071127Y0109176D01*
X0065551Y0103600D01*
X0062799Y0103600D01*
X0064399Y0105200D01*
X0065600Y0106401D01*
X0065600Y0113799D01*
X0058950Y0120449D01*
X0057749Y0121650D01*
X0038001Y0121650D01*
X0027951Y0111600D01*
X0026774Y0111600D01*
X0025524Y0111082D01*
X0024568Y0110126D01*
X0024050Y0108876D01*
X0024050Y0107524D01*
X0024568Y0106274D01*
X0024142Y0107302D02*
X0022697Y0107302D01*
X0024060Y0108900D02*
X0018836Y0108900D01*
X0019595Y0110499D02*
X0024940Y0110499D01*
X0028448Y0112097D02*
X0019951Y0112097D01*
X0019988Y0113978D02*
X0019879Y0114801D01*
X0019598Y0115852D01*
X0019181Y0116857D01*
X0018637Y0117799D01*
X0017975Y0118662D01*
X0017206Y0119432D01*
X0016342Y0120094D01*
X0015400Y0120638D01*
X0014395Y0121054D01*
X0013344Y0121336D01*
X0012521Y0121444D01*
X0012521Y0113978D01*
X0019988Y0113978D01*
X0019747Y0115294D02*
X0031645Y0115294D01*
X0030047Y0113696D02*
X0012521Y0113696D01*
X0012521Y0115294D02*
X0010921Y0115294D01*
X0010921Y0116893D02*
X0012521Y0116893D01*
X0012521Y0118491D02*
X0010921Y0118491D01*
X0010921Y0120090D02*
X0012521Y0120090D01*
X0016348Y0120090D02*
X0036441Y0120090D01*
X0034842Y0118491D02*
X0018106Y0118491D01*
X0019160Y0116893D02*
X0033244Y0116893D01*
X0031345Y0108900D02*
X0031049Y0108900D01*
X0030758Y0107302D02*
X0031345Y0107302D01*
X0031345Y0105703D02*
X0029762Y0105703D01*
X0032082Y0104105D02*
X0025894Y0104105D01*
X0027493Y0102506D02*
X0035007Y0102506D01*
X0033409Y0100908D02*
X0029091Y0100908D01*
X0024951Y0099250D02*
X0020901Y0103300D01*
X0014255Y0103300D01*
X0014700Y0102226D01*
X0014700Y0100874D01*
X0014348Y0100025D01*
X0014614Y0100096D01*
X0015934Y0100096D01*
X0015934Y0095954D01*
X0015934Y0095954D01*
X0015934Y0100096D01*
X0017254Y0100096D01*
X0017711Y0099973D01*
X0018122Y0099736D01*
X0018457Y0099401D01*
X0018694Y0098991D01*
X0018817Y0098533D01*
X0018817Y0095954D01*
X0015934Y0095954D01*
X0015934Y0095953D01*
X0018817Y0095953D01*
X0018817Y0094100D01*
X0019455Y0094100D01*
X0019455Y0098876D01*
X0020275Y0099696D01*
X0023325Y0099696D01*
X0024094Y0098927D01*
X0024874Y0099250D01*
X0024951Y0099250D01*
X0024892Y0099309D02*
X0023712Y0099309D01*
X0023293Y0100908D02*
X0014700Y0100908D01*
X0013070Y0098603D02*
X0013051Y0098533D01*
X0013051Y0095954D01*
X0015934Y0095954D01*
X0015934Y0095953D01*
X0013051Y0095953D01*
X0013051Y0093374D01*
X0013174Y0092916D01*
X0013411Y0092506D01*
X0013746Y0092171D01*
X0014156Y0091934D01*
X0014614Y0091811D01*
X0015762Y0091811D01*
X0008300Y0084349D01*
X0008300Y0047052D01*
X0007650Y0046402D01*
X0007650Y0099751D01*
X0008156Y0100257D01*
X0008300Y0099908D01*
X0008300Y0099453D01*
X0007723Y0098876D01*
X0007723Y0093031D01*
X0008543Y0092211D01*
X0011592Y0092211D01*
X0012413Y0093031D01*
X0012413Y0096505D01*
X0012563Y0096957D01*
X0012413Y0097259D01*
X0012413Y0098331D01*
X0013070Y0098603D01*
X0013051Y0097711D02*
X0012413Y0097711D01*
X0012413Y0096112D02*
X0013051Y0096112D01*
X0013051Y0094514D02*
X0012413Y0094514D01*
X0012297Y0092915D02*
X0013174Y0092915D01*
X0015267Y0091317D02*
X0007650Y0091317D01*
X0007650Y0092915D02*
X0007839Y0092915D01*
X0007723Y0094514D02*
X0007650Y0094514D01*
X0007650Y0096112D02*
X0007723Y0096112D01*
X0007723Y0097711D02*
X0007650Y0097711D01*
X0007650Y0099309D02*
X0008156Y0099309D01*
X0014584Y0102506D02*
X0021695Y0102506D01*
X0019888Y0099309D02*
X0018510Y0099309D01*
X0018817Y0097711D02*
X0019455Y0097711D01*
X0019455Y0096112D02*
X0018817Y0096112D01*
X0018817Y0094514D02*
X0019455Y0094514D01*
X0015934Y0096112D02*
X0015934Y0096112D01*
X0015934Y0097711D02*
X0015934Y0097711D01*
X0015934Y0099309D02*
X0015934Y0099309D01*
X0013669Y0089718D02*
X0007650Y0089718D01*
X0007650Y0088120D02*
X0012070Y0088120D01*
X0010472Y0086521D02*
X0007650Y0086521D01*
X0007650Y0084923D02*
X0008873Y0084923D01*
X0008300Y0083324D02*
X0007650Y0083324D01*
X0007650Y0081726D02*
X0008300Y0081726D01*
X0008300Y0080127D02*
X0007650Y0080127D01*
X0007650Y0078529D02*
X0008300Y0078529D01*
X0008300Y0076930D02*
X0007650Y0076930D01*
X0007650Y0075332D02*
X0008300Y0075332D01*
X0008300Y0073733D02*
X0007650Y0073733D01*
X0007650Y0072134D02*
X0008300Y0072134D01*
X0008300Y0070536D02*
X0007650Y0070536D01*
X0007650Y0068937D02*
X0008300Y0068937D01*
X0008300Y0067339D02*
X0007650Y0067339D01*
X0007650Y0065740D02*
X0008300Y0065740D01*
X0008300Y0064142D02*
X0007650Y0064142D01*
X0007650Y0062543D02*
X0008300Y0062543D01*
X0008300Y0060945D02*
X0007650Y0060945D01*
X0007650Y0059346D02*
X0008300Y0059346D01*
X0008300Y0057748D02*
X0007650Y0057748D01*
X0007650Y0056149D02*
X0008300Y0056149D01*
X0008300Y0054551D02*
X0007650Y0054551D01*
X0007650Y0052952D02*
X0008300Y0052952D01*
X0008300Y0051354D02*
X0007650Y0051354D01*
X0007650Y0049755D02*
X0008300Y0049755D01*
X0008300Y0048157D02*
X0007650Y0048157D01*
X0007650Y0046558D02*
X0007807Y0046558D01*
X0007650Y0043104D02*
X0007650Y0035899D01*
X0018350Y0025199D01*
X0018350Y0026226D01*
X0018868Y0027476D01*
X0019700Y0028308D01*
X0019700Y0038628D01*
X0019626Y0038628D01*
X0018806Y0039448D01*
X0018806Y0042577D01*
X0019626Y0043397D01*
X0023541Y0043397D01*
X0024361Y0042577D01*
X0024361Y0039448D01*
X0023800Y0038887D01*
X0023800Y0028308D01*
X0024632Y0027476D01*
X0025150Y0026226D01*
X0025150Y0024874D01*
X0024632Y0023624D01*
X0023676Y0022668D01*
X0022426Y0022150D01*
X0021399Y0022150D01*
X0023477Y0020072D01*
X0023933Y0021173D01*
X0025400Y0022640D01*
X0025400Y0046551D01*
X0024744Y0047207D01*
X0024639Y0046814D01*
X0024402Y0046403D01*
X0024067Y0046068D01*
X0023656Y0045831D01*
X0023198Y0045709D01*
X0021584Y0045709D01*
X0021584Y0048493D01*
X0021583Y0048493D01*
X0021583Y0048493D01*
X0018406Y0048493D01*
X0018406Y0049714D01*
X0018528Y0050172D01*
X0018765Y0050582D01*
X0019100Y0050918D01*
X0019511Y0051154D01*
X0019969Y0051277D01*
X0021583Y0051277D01*
X0021583Y0048493D01*
X0018406Y0048493D01*
X0018406Y0047272D01*
X0018528Y0046814D01*
X0018765Y0046403D01*
X0019100Y0046068D01*
X0019511Y0045831D01*
X0019969Y0045709D01*
X0021583Y0045709D01*
X0021583Y0048493D01*
X0021584Y0048493D01*
X0021584Y0051277D01*
X0021600Y0051277D01*
X0021600Y0075042D01*
X0020768Y0075874D01*
X0020250Y0077124D01*
X0020250Y0078476D01*
X0020768Y0079726D01*
X0021724Y0080682D01*
X0022974Y0081200D01*
X0024326Y0081200D01*
X0025576Y0080682D01*
X0026532Y0079726D01*
X0027050Y0078476D01*
X0027050Y0077124D01*
X0026532Y0075874D01*
X0025700Y0075042D01*
X0025700Y0073155D01*
X0026774Y0073600D01*
X0028126Y0073600D01*
X0029376Y0073082D01*
X0030208Y0072250D01*
X0033235Y0072250D01*
X0033235Y0072459D01*
X0034055Y0073279D01*
X0041120Y0073279D01*
X0041940Y0072459D01*
X0041940Y0066181D01*
X0041615Y0065856D01*
X0041645Y0065839D01*
X0041981Y0065504D01*
X0042217Y0065093D01*
X0042340Y0064635D01*
X0042340Y0062319D01*
X0038067Y0062319D01*
X0037108Y0062319D01*
X0037108Y0065361D01*
X0038067Y0065361D01*
X0038067Y0062319D01*
X0038067Y0061360D01*
X0042340Y0061360D01*
X0042340Y0059043D01*
X0042217Y0058586D01*
X0041981Y0058175D01*
X0041645Y0057840D01*
X0041235Y0057603D01*
X0040777Y0057480D01*
X0038067Y0057480D01*
X0038067Y0061360D01*
X0037108Y0061360D01*
X0032835Y0061360D01*
X0032835Y0059043D01*
X0032957Y0058586D01*
X0033194Y0058175D01*
X0033529Y0057840D01*
X0033940Y0057603D01*
X0034398Y0057480D01*
X0037108Y0057480D01*
X0037108Y0061360D01*
X0037108Y0062319D01*
X0032835Y0062319D01*
X0032835Y0064635D01*
X0032957Y0065093D01*
X0033194Y0065504D01*
X0033529Y0065839D01*
X0033559Y0065856D01*
X0033235Y0066181D01*
X0033235Y0068150D01*
X0030208Y0068150D01*
X0029376Y0067318D01*
X0028126Y0066800D01*
X0026774Y0066800D01*
X0025700Y0067245D01*
X0025700Y0052049D01*
X0026206Y0051543D01*
X0026468Y0052176D01*
X0027424Y0053132D01*
X0028674Y0053650D01*
X0030026Y0053650D01*
X0031276Y0053132D01*
X0032232Y0052176D01*
X0032526Y0051468D01*
X0036219Y0051468D01*
X0042500Y0057749D01*
X0042500Y0084349D01*
X0043257Y0085106D01*
X0042624Y0085368D01*
X0041668Y0086324D01*
X0041150Y0087574D01*
X0041150Y0088751D01*
X0040600Y0089301D01*
X0040600Y0092516D01*
X0040085Y0093031D01*
X0040085Y0098876D01*
X0040709Y0099500D01*
X0038988Y0099500D01*
X0039087Y0099401D01*
X0039324Y0098991D01*
X0039446Y0098533D01*
X0039446Y0095954D01*
X0036564Y0095954D01*
X0036564Y0095953D01*
X0036564Y0091811D01*
X0037883Y0091811D01*
X0038341Y0091934D01*
X0038752Y0092171D01*
X0039087Y0092506D01*
X0039324Y0092916D01*
X0039446Y0093374D01*
X0039446Y0095953D01*
X0036564Y0095953D01*
X0036564Y0095953D01*
X0036564Y0091811D01*
X0035244Y0091811D01*
X0034941Y0091892D01*
X0034443Y0091394D01*
X0035076Y0091132D01*
X0036032Y0090176D01*
X0036550Y0088926D01*
X0036550Y0087574D01*
X0036032Y0086324D01*
X0035076Y0085368D01*
X0034705Y0085214D01*
X0036564Y0085214D01*
X0036564Y0082509D01*
X0036564Y0082509D01*
X0041946Y0082509D01*
X0041946Y0083651D01*
X0041824Y0084109D01*
X0041587Y0084519D01*
X0041252Y0084855D01*
X0040841Y0085091D01*
X0040383Y0085214D01*
X0036564Y0085214D01*
X0036564Y0082509D01*
X0036564Y0082509D01*
X0041946Y0082509D01*
X0041946Y0081366D01*
X0041824Y0080908D01*
X0041587Y0080498D01*
X0041252Y0080163D01*
X0040841Y0079926D01*
X0040383Y0079803D01*
X0036564Y0079803D01*
X0036564Y0082509D01*
X0036564Y0082509D01*
X0031181Y0082509D01*
X0031181Y0083651D01*
X0031304Y0084109D01*
X0031541Y0084519D01*
X0031876Y0084855D01*
X0032121Y0084996D01*
X0031224Y0085368D01*
X0030392Y0086200D01*
X0022608Y0086200D01*
X0021776Y0085368D01*
X0020586Y0084875D01*
X0020622Y0084855D01*
X0020957Y0084519D01*
X0021194Y0084109D01*
X0021317Y0083651D01*
X0021317Y0082509D01*
X0015934Y0082509D01*
X0015934Y0082509D01*
X0015934Y0085214D01*
X0018295Y0085214D01*
X0017924Y0085368D01*
X0016968Y0086324D01*
X0016706Y0086957D01*
X0014963Y0085214D01*
X0015934Y0085214D01*
X0015934Y0082509D01*
X0015934Y0082509D01*
X0021317Y0082509D01*
X0021317Y0081366D01*
X0021194Y0080908D01*
X0020957Y0080498D01*
X0020622Y0080163D01*
X0020211Y0079926D01*
X0019754Y0079803D01*
X0015934Y0079803D01*
X0015934Y0082509D01*
X0015934Y0082509D01*
X0015934Y0079803D01*
X0012400Y0079803D01*
X0012400Y0047038D01*
X0013121Y0046317D01*
X0013121Y0043189D01*
X0012301Y0042369D01*
X0008385Y0042369D01*
X0007650Y0043104D01*
X0007650Y0041763D02*
X0018806Y0041763D01*
X0019590Y0043361D02*
X0013121Y0043361D01*
X0013121Y0044960D02*
X0025400Y0044960D01*
X0025393Y0046558D02*
X0024491Y0046558D01*
X0025400Y0043361D02*
X0023577Y0043361D01*
X0024361Y0041763D02*
X0025400Y0041763D01*
X0025400Y0040164D02*
X0024361Y0040164D01*
X0023800Y0038566D02*
X0025400Y0038566D01*
X0025400Y0036967D02*
X0023800Y0036967D01*
X0023800Y0035369D02*
X0025400Y0035369D01*
X0025400Y0033770D02*
X0023800Y0033770D01*
X0023800Y0032172D02*
X0025400Y0032172D01*
X0025400Y0030573D02*
X0023800Y0030573D01*
X0023800Y0028975D02*
X0025400Y0028975D01*
X0025400Y0027376D02*
X0024674Y0027376D01*
X0025150Y0025778D02*
X0025400Y0025778D01*
X0025400Y0024179D02*
X0024862Y0024179D01*
X0025341Y0022581D02*
X0023466Y0022581D01*
X0023854Y0020982D02*
X0022567Y0020982D01*
X0018350Y0025778D02*
X0017771Y0025778D01*
X0018826Y0027376D02*
X0016173Y0027376D01*
X0014574Y0028975D02*
X0019700Y0028975D01*
X0019700Y0030573D02*
X0012976Y0030573D01*
X0011377Y0032172D02*
X0019700Y0032172D01*
X0019700Y0033770D02*
X0009779Y0033770D01*
X0008180Y0035369D02*
X0019700Y0035369D01*
X0019700Y0036967D02*
X0007650Y0036967D01*
X0007650Y0038566D02*
X0019700Y0038566D01*
X0018806Y0040164D02*
X0007650Y0040164D01*
X0012880Y0046558D02*
X0018676Y0046558D01*
X0018406Y0048157D02*
X0012400Y0048157D01*
X0012400Y0049755D02*
X0018417Y0049755D01*
X0021583Y0049755D02*
X0021584Y0049755D01*
X0021583Y0048157D02*
X0021584Y0048157D01*
X0021583Y0046558D02*
X0021584Y0046558D01*
X0021600Y0051354D02*
X0012400Y0051354D01*
X0012400Y0052952D02*
X0021600Y0052952D01*
X0021600Y0054551D02*
X0012400Y0054551D01*
X0012400Y0056149D02*
X0021600Y0056149D01*
X0021600Y0057748D02*
X0012400Y0057748D01*
X0012400Y0059346D02*
X0021600Y0059346D01*
X0021600Y0060945D02*
X0012400Y0060945D01*
X0012400Y0062543D02*
X0021600Y0062543D01*
X0021600Y0064142D02*
X0012400Y0064142D01*
X0012400Y0065740D02*
X0021600Y0065740D01*
X0021600Y0067339D02*
X0012400Y0067339D01*
X0012400Y0068937D02*
X0021600Y0068937D01*
X0021600Y0070536D02*
X0012400Y0070536D01*
X0012400Y0072134D02*
X0021600Y0072134D01*
X0021600Y0073733D02*
X0012400Y0073733D01*
X0012400Y0075332D02*
X0021310Y0075332D01*
X0020330Y0076930D02*
X0012400Y0076930D01*
X0012400Y0078529D02*
X0020272Y0078529D01*
X0020560Y0080127D02*
X0021169Y0080127D01*
X0021317Y0081726D02*
X0031181Y0081726D01*
X0031181Y0081366D02*
X0031181Y0082509D01*
X0036564Y0082509D01*
X0036564Y0082509D01*
X0036564Y0079803D01*
X0032744Y0079803D01*
X0032286Y0079926D01*
X0031876Y0080163D01*
X0031541Y0080498D01*
X0031304Y0080908D01*
X0031181Y0081366D01*
X0031938Y0080127D02*
X0026131Y0080127D01*
X0027028Y0078529D02*
X0042500Y0078529D01*
X0042500Y0080127D02*
X0041190Y0080127D01*
X0041946Y0081726D02*
X0042500Y0081726D01*
X0042500Y0083324D02*
X0041946Y0083324D01*
X0041134Y0084923D02*
X0043073Y0084923D01*
X0041586Y0086521D02*
X0036114Y0086521D01*
X0036564Y0084923D02*
X0036564Y0084923D01*
X0036564Y0083324D02*
X0036564Y0083324D01*
X0036564Y0081726D02*
X0036564Y0081726D01*
X0036564Y0080127D02*
X0036564Y0080127D01*
X0031994Y0084923D02*
X0020702Y0084923D01*
X0021317Y0083324D02*
X0031181Y0083324D01*
X0026970Y0076930D02*
X0042500Y0076930D01*
X0042500Y0075332D02*
X0025990Y0075332D01*
X0025700Y0073733D02*
X0042500Y0073733D01*
X0042500Y0072134D02*
X0041940Y0072134D01*
X0041940Y0070536D02*
X0042500Y0070536D01*
X0042500Y0068937D02*
X0041940Y0068937D01*
X0041940Y0067339D02*
X0042500Y0067339D01*
X0042500Y0065740D02*
X0041744Y0065740D01*
X0042340Y0064142D02*
X0042500Y0064142D01*
X0042500Y0062543D02*
X0042340Y0062543D01*
X0042340Y0060945D02*
X0042500Y0060945D01*
X0042500Y0059346D02*
X0042340Y0059346D01*
X0042499Y0057748D02*
X0041486Y0057748D01*
X0040900Y0056149D02*
X0025700Y0056149D01*
X0025700Y0054551D02*
X0039302Y0054551D01*
X0037703Y0052952D02*
X0031456Y0052952D01*
X0033689Y0057748D02*
X0025700Y0057748D01*
X0025700Y0059346D02*
X0032835Y0059346D01*
X0032835Y0060945D02*
X0025700Y0060945D01*
X0025700Y0062543D02*
X0032835Y0062543D01*
X0032835Y0064142D02*
X0025700Y0064142D01*
X0025700Y0065740D02*
X0033431Y0065740D01*
X0033235Y0067339D02*
X0029397Y0067339D01*
X0037108Y0064142D02*
X0038067Y0064142D01*
X0038067Y0062543D02*
X0037108Y0062543D01*
X0037108Y0060945D02*
X0038067Y0060945D01*
X0038067Y0059346D02*
X0037108Y0059346D01*
X0037108Y0057748D02*
X0038067Y0057748D01*
X0027244Y0052952D02*
X0025700Y0052952D01*
X0015934Y0080127D02*
X0015934Y0080127D01*
X0015934Y0081726D02*
X0015934Y0081726D01*
X0015934Y0083324D02*
X0015934Y0083324D01*
X0015934Y0084923D02*
X0015934Y0084923D01*
X0016270Y0086521D02*
X0016886Y0086521D01*
X0034631Y0091317D02*
X0040600Y0091317D01*
X0040600Y0089718D02*
X0036222Y0089718D01*
X0036550Y0088120D02*
X0041150Y0088120D01*
X0040201Y0092915D02*
X0039323Y0092915D01*
X0039446Y0094514D02*
X0040085Y0094514D01*
X0040085Y0096112D02*
X0039446Y0096112D01*
X0039446Y0097711D02*
X0040085Y0097711D01*
X0040518Y0099309D02*
X0039140Y0099309D01*
X0039391Y0104105D02*
X0038526Y0104105D01*
X0039263Y0108900D02*
X0042698Y0108900D01*
X0043658Y0108900D02*
X0047959Y0108900D01*
X0047959Y0110499D02*
X0047537Y0110499D01*
X0047500Y0112097D02*
X0047959Y0112097D01*
X0047959Y0107302D02*
X0047537Y0107302D01*
X0047537Y0105703D02*
X0053648Y0105703D01*
X0055246Y0104105D02*
X0046965Y0104105D01*
X0043657Y0104105D02*
X0042698Y0104105D01*
X0042698Y0105703D02*
X0043657Y0105703D01*
X0043657Y0107302D02*
X0042698Y0107302D01*
X0051789Y0099500D02*
X0053510Y0099500D01*
X0053411Y0099401D01*
X0053174Y0098991D01*
X0053051Y0098533D01*
X0053051Y0095954D01*
X0055934Y0095954D01*
X0058817Y0095954D01*
X0058817Y0098533D01*
X0058694Y0098991D01*
X0058457Y0099401D01*
X0058358Y0099500D01*
X0060079Y0099500D01*
X0059455Y0098876D01*
X0059455Y0093031D01*
X0060275Y0092211D01*
X0060550Y0092211D01*
X0060550Y0084896D01*
X0060211Y0085091D01*
X0059754Y0085214D01*
X0055934Y0085214D01*
X0055934Y0082509D01*
X0055934Y0082509D01*
X0055934Y0085214D01*
X0052300Y0085214D01*
X0052300Y0092919D01*
X0052413Y0093031D01*
X0052413Y0095507D01*
X0052452Y0095576D01*
X0052413Y0095718D01*
X0052413Y0098876D01*
X0051789Y0099500D01*
X0051979Y0099309D02*
X0053358Y0099309D01*
X0053051Y0097711D02*
X0052413Y0097711D01*
X0052413Y0096112D02*
X0053051Y0096112D01*
X0053051Y0095953D02*
X0053051Y0093374D01*
X0053174Y0092916D01*
X0053411Y0092506D01*
X0053746Y0092171D01*
X0054156Y0091934D01*
X0054614Y0091811D01*
X0055934Y0091811D01*
X0057254Y0091811D01*
X0057711Y0091934D01*
X0058122Y0092171D01*
X0058457Y0092506D01*
X0058694Y0092916D01*
X0058817Y0093374D01*
X0058817Y0095953D01*
X0055934Y0095953D01*
X0055934Y0091811D01*
X0055934Y0095953D01*
X0055934Y0095953D01*
X0055934Y0095954D01*
X0055934Y0095953D01*
X0053051Y0095953D01*
X0053051Y0094514D02*
X0052413Y0094514D01*
X0052300Y0092915D02*
X0053174Y0092915D01*
X0052300Y0091317D02*
X0060550Y0091317D01*
X0060550Y0089718D02*
X0052300Y0089718D01*
X0052300Y0088120D02*
X0060550Y0088120D01*
X0060550Y0086521D02*
X0052300Y0086521D01*
X0055934Y0084923D02*
X0055934Y0084923D01*
X0055934Y0083324D02*
X0055934Y0083324D01*
X0055934Y0082509D02*
X0055934Y0079803D01*
X0059754Y0079803D01*
X0060211Y0079926D01*
X0060550Y0080121D01*
X0060550Y0075808D01*
X0059718Y0074976D01*
X0059200Y0073726D01*
X0059200Y0072374D01*
X0059592Y0071428D01*
X0055669Y0071428D01*
X0054849Y0070608D01*
X0054849Y0069400D01*
X0052300Y0069400D01*
X0052300Y0079803D01*
X0055934Y0079803D01*
X0055934Y0082509D01*
X0055934Y0082509D01*
X0055934Y0081726D02*
X0055934Y0081726D01*
X0055934Y0080127D02*
X0055934Y0080127D01*
X0052300Y0078529D02*
X0060550Y0078529D01*
X0060550Y0076930D02*
X0052300Y0076930D01*
X0052300Y0075332D02*
X0060073Y0075332D01*
X0059203Y0073733D02*
X0052300Y0073733D01*
X0052300Y0072134D02*
X0059299Y0072134D01*
X0054849Y0070536D02*
X0052300Y0070536D01*
X0060504Y0084923D02*
X0060550Y0084923D01*
X0064650Y0091299D02*
X0064650Y0095718D01*
X0064742Y0096429D01*
X0064650Y0096548D01*
X0064650Y0096699D01*
X0064145Y0097204D01*
X0064145Y0098876D01*
X0063521Y0099500D01*
X0067249Y0099500D01*
X0074029Y0106280D01*
X0076449Y0105278D01*
X0079592Y0105278D01*
X0082495Y0106481D01*
X0084718Y0108703D01*
X0085614Y0110867D01*
X0085614Y0083335D01*
X0083650Y0085299D01*
X0083650Y0095607D01*
X0083792Y0096196D01*
X0083650Y0096427D01*
X0083650Y0096699D01*
X0083515Y0096834D01*
X0083515Y0098876D01*
X0082695Y0099696D01*
X0079645Y0099696D01*
X0078825Y0098876D01*
X0078825Y0093031D01*
X0079550Y0092306D01*
X0079550Y0085100D01*
X0079124Y0085214D01*
X0075304Y0085214D01*
X0075304Y0082509D01*
X0075304Y0082509D01*
X0075304Y0085214D01*
X0071484Y0085214D01*
X0071026Y0085091D01*
X0070727Y0084918D01*
X0071182Y0085374D01*
X0071700Y0086624D01*
X0071700Y0087976D01*
X0071182Y0089226D01*
X0070226Y0090182D01*
X0069593Y0090444D01*
X0071300Y0092151D01*
X0071300Y0092548D01*
X0071783Y0093031D01*
X0071783Y0098876D01*
X0070963Y0099696D01*
X0067913Y0099696D01*
X0067093Y0098876D01*
X0067093Y0095770D01*
X0067045Y0095604D01*
X0067093Y0095517D01*
X0067093Y0093742D01*
X0064650Y0091299D01*
X0064650Y0091317D02*
X0064668Y0091317D01*
X0064650Y0092915D02*
X0066266Y0092915D01*
X0067093Y0094514D02*
X0064650Y0094514D01*
X0064701Y0096112D02*
X0067093Y0096112D01*
X0067093Y0097711D02*
X0064145Y0097711D01*
X0063712Y0099309D02*
X0067526Y0099309D01*
X0068657Y0100908D02*
X0085614Y0100908D01*
X0085614Y0099309D02*
X0083082Y0099309D01*
X0083515Y0097711D02*
X0085614Y0097711D01*
X0085614Y0096112D02*
X0083772Y0096112D01*
X0083650Y0094514D02*
X0085614Y0094514D01*
X0085614Y0092915D02*
X0083650Y0092915D01*
X0083650Y0091317D02*
X0085614Y0091317D01*
X0085614Y0089718D02*
X0083650Y0089718D01*
X0083650Y0088120D02*
X0085614Y0088120D01*
X0085614Y0086521D02*
X0083650Y0086521D01*
X0084027Y0084923D02*
X0085614Y0084923D01*
X0079550Y0086521D02*
X0071657Y0086521D01*
X0070734Y0084923D02*
X0070731Y0084923D01*
X0071641Y0088120D02*
X0079550Y0088120D01*
X0079550Y0089718D02*
X0070690Y0089718D01*
X0070466Y0091317D02*
X0079550Y0091317D01*
X0078941Y0092915D02*
X0078063Y0092915D01*
X0078064Y0092916D02*
X0078187Y0093374D01*
X0078187Y0095953D01*
X0075304Y0095953D01*
X0075304Y0091811D01*
X0076624Y0091811D01*
X0077081Y0091934D01*
X0077492Y0092171D01*
X0077827Y0092506D01*
X0078064Y0092916D01*
X0078187Y0094514D02*
X0078825Y0094514D01*
X0078187Y0095954D02*
X0078187Y0098533D01*
X0078064Y0098991D01*
X0077827Y0099401D01*
X0077492Y0099736D01*
X0077081Y0099973D01*
X0076624Y0100096D01*
X0075304Y0100096D01*
X0075304Y0095954D01*
X0075304Y0095954D01*
X0075304Y0100096D01*
X0073984Y0100096D01*
X0073526Y0099973D01*
X0073116Y0099736D01*
X0072781Y0099401D01*
X0072544Y0098991D01*
X0072421Y0098533D01*
X0072421Y0095954D01*
X0075304Y0095954D01*
X0078187Y0095954D01*
X0078187Y0096112D02*
X0078825Y0096112D01*
X0078825Y0097711D02*
X0078187Y0097711D01*
X0077880Y0099309D02*
X0079258Y0099309D01*
X0075304Y0099309D02*
X0075304Y0099309D01*
X0075304Y0097711D02*
X0075304Y0097711D01*
X0075304Y0096112D02*
X0075304Y0096112D01*
X0075304Y0095954D02*
X0075304Y0095953D01*
X0075304Y0095953D01*
X0075304Y0091811D01*
X0073984Y0091811D01*
X0073526Y0091934D01*
X0073116Y0092171D01*
X0072781Y0092506D01*
X0072544Y0092916D01*
X0072421Y0093374D01*
X0072421Y0095953D01*
X0075304Y0095953D01*
X0075304Y0095954D01*
X0075304Y0094514D02*
X0075304Y0094514D01*
X0075304Y0092915D02*
X0075304Y0092915D01*
X0072545Y0092915D02*
X0071667Y0092915D01*
X0071783Y0094514D02*
X0072421Y0094514D01*
X0072421Y0096112D02*
X0071783Y0096112D01*
X0071783Y0097711D02*
X0072421Y0097711D01*
X0072728Y0099309D02*
X0071349Y0099309D01*
X0070255Y0102506D02*
X0085614Y0102506D01*
X0085614Y0104105D02*
X0071854Y0104105D01*
X0073452Y0105703D02*
X0075422Y0105703D01*
X0070851Y0108900D02*
X0065600Y0108900D01*
X0065600Y0110499D02*
X0070579Y0110499D01*
X0070120Y0112097D02*
X0065600Y0112097D01*
X0065600Y0113696D02*
X0070120Y0113696D01*
X0070346Y0115294D02*
X0064105Y0115294D01*
X0062506Y0116893D02*
X0071008Y0116893D01*
X0072162Y0118491D02*
X0060908Y0118491D01*
X0059309Y0120090D02*
X0074064Y0120090D01*
X0081977Y0120090D02*
X0085614Y0120090D01*
X0085614Y0121688D02*
X0004600Y0121688D01*
X0004600Y0120090D02*
X0007095Y0120090D01*
X0005336Y0118491D02*
X0004600Y0118491D01*
X0004600Y0123287D02*
X0085614Y0123287D01*
X0085614Y0124885D02*
X0004600Y0124885D01*
X0036564Y0094514D02*
X0036564Y0094514D01*
X0036564Y0092915D02*
X0036564Y0092915D01*
X0055934Y0092915D02*
X0055934Y0092915D01*
X0055934Y0094514D02*
X0055934Y0094514D01*
X0058817Y0094514D02*
X0059455Y0094514D01*
X0059571Y0092915D02*
X0058693Y0092915D01*
X0058817Y0096112D02*
X0059455Y0096112D01*
X0059455Y0097711D02*
X0058817Y0097711D01*
X0058510Y0099309D02*
X0059888Y0099309D01*
X0063304Y0104105D02*
X0066056Y0104105D01*
X0064902Y0105703D02*
X0067654Y0105703D01*
X0069253Y0107302D02*
X0065600Y0107302D01*
X0080619Y0105703D02*
X0085614Y0105703D01*
X0085614Y0107302D02*
X0083317Y0107302D01*
X0084799Y0108900D02*
X0085614Y0108900D01*
X0085614Y0110499D02*
X0085462Y0110499D01*
X0085614Y0116893D02*
X0085033Y0116893D01*
X0085614Y0118491D02*
X0083879Y0118491D01*
X0075304Y0084923D02*
X0075304Y0084923D01*
X0075304Y0083324D02*
X0075304Y0083324D01*
X0075304Y0082509D02*
X0075304Y0079803D01*
X0078200Y0079803D01*
X0078200Y0079199D01*
X0072900Y0073899D01*
X0072900Y0070798D01*
X0071693Y0070798D01*
X0070872Y0069978D01*
X0070872Y0063307D01*
X0071693Y0062487D01*
X0072900Y0062487D01*
X0072900Y0051113D01*
X0072007Y0051113D01*
X0071187Y0050293D01*
X0071187Y0045514D01*
X0071182Y0045526D01*
X0070350Y0046358D01*
X0070350Y0080429D01*
X0070616Y0080163D01*
X0071026Y0079926D01*
X0071484Y0079803D01*
X0075304Y0079803D01*
X0075304Y0082509D01*
X0075304Y0082509D01*
X0075304Y0081726D02*
X0075304Y0081726D01*
X0075304Y0080127D02*
X0075304Y0080127D01*
X0075931Y0076930D02*
X0070350Y0076930D01*
X0070350Y0075332D02*
X0074332Y0075332D01*
X0072900Y0073733D02*
X0070350Y0073733D01*
X0070350Y0072134D02*
X0072900Y0072134D01*
X0071430Y0070536D02*
X0070350Y0070536D01*
X0070350Y0068937D02*
X0070872Y0068937D01*
X0070872Y0067339D02*
X0070350Y0067339D01*
X0070350Y0065740D02*
X0070872Y0065740D01*
X0070872Y0064142D02*
X0070350Y0064142D01*
X0070350Y0062543D02*
X0071636Y0062543D01*
X0072900Y0060945D02*
X0070350Y0060945D01*
X0070350Y0059346D02*
X0072900Y0059346D01*
X0072900Y0057748D02*
X0070350Y0057748D01*
X0070350Y0056149D02*
X0072900Y0056149D01*
X0072900Y0054551D02*
X0070350Y0054551D01*
X0070350Y0052952D02*
X0072900Y0052952D01*
X0072900Y0051354D02*
X0070350Y0051354D01*
X0070350Y0049755D02*
X0071187Y0049755D01*
X0071187Y0048157D02*
X0070350Y0048157D01*
X0070350Y0046558D02*
X0071187Y0046558D01*
X0070350Y0078529D02*
X0077529Y0078529D01*
X0070678Y0080127D02*
X0070350Y0080127D01*
M02*
